<?xml version="1.0" encoding="utf-8"?>
<!-- Generator: Adobe Illustrator 22.0.0, SVG Export Plug-In . SVG Version: 6.00 Build 0)  -->
<svg version="1.1" id="Capa_1" xmlns="http://www.w3.org/2000/svg" xmlns:xlink="http://www.w3.org/1999/xlink" x="0px" y="0px"
	 viewBox="0 0 50 50" style="enable-background:new 0 0 50 50;" xml:space="preserve">
<style type="text/css">
	.st0{fill:#565555;}
</style>
<g>
	<path class="st0" d="M43.4,1.9H6.6C4,1.9,1.9,4,1.9,6.6v36.7c0,2.6,2.1,4.7,4.7,4.7h36.7c2.6,0,4.7-2.1,4.7-4.7V6.6
		C48.1,4,46,1.9,43.4,1.9z M28.5,9.7h2.2v7.1c0,1.4,0,1.3,0.1,1.5c0,0.2,0.2,0.6,0.7,0.6c0.6,0,0.7-0.4,0.8-0.6
		c0-0.2,0.1-0.1,0.1-1.6v-7h2.2v10.6h-2.3l0-0.5l-0.7-0.3c-0.2,0.4-0.4,0.6-0.6,0.8c-0.3,0.2-0.5,0.3-0.9,0.3
		c-0.4,0-0.7-0.1-0.9-0.2c-0.2-0.2-0.4-0.4-0.5-0.6c-0.1-0.3-0.2-0.6-0.2-0.9c0-0.3-0.1-1.1-0.1-2.1V9.7L28.5,9.7z M20.7,14.1
		c0-1.1,0.1-2,0.3-2.6c0.2-0.6,0.5-1,0.9-1.3c0.5-0.4,1.1-0.5,1.8-0.5c0.6,0,1.2,0.1,1.6,0.4c0.4,0.2,0.7,0.5,1,0.9
		c0.2,0.4,0.4,0.7,0.5,1.1c0.1,0.4,0.1,1,0.1,1.9v1.9c0,1.1,0,1.9-0.1,2.4c-0.1,0.5-0.2,0.9-0.5,1.3c-0.3,0.4-0.6,0.7-1,0.9
		c-0.4,0.2-0.9,0.3-1.4,0.3c-0.6,0-1.1-0.1-1.6-0.3c-0.4-0.2-0.7-0.4-0.9-0.7c-0.2-0.3-0.4-0.7-0.5-1.2c-0.1-0.5-0.2-1.3-0.2-2.3
		L20.7,14.1z M15.4,5.9l1.8,5.9c0.3-1.5,0.9-3.7,1.4-5.9h1.7l-2.1,8.4l0,0.1v6h-1.9v-6l0-0.1l-2.5-8.4H15.4z M41.9,38.8
		c-0.3,2.6-2.6,4.8-5.3,5c-7.8,0.3-15.5,0.3-23.2,0c-2.6-0.2-5-2.3-5.3-5c-0.3-4.2-0.3-8.3,0-12.5c0.3-2.6,2.6-4.8,5.3-5
		c7.8-0.3,15.5-0.3,23.2,0c2.6,0.2,5,2.3,5.3,5C42.2,30.5,42.2,34.6,41.9,38.8z M23.8,19.3c0.3,0,0.6-0.2,0.7-0.5
		c0.1-0.2,0.1-0.5,0.1-1.3v-4.6c0-0.9-0.1-1.2-0.1-1.4c-0.1-0.3-0.4-0.5-0.7-0.5c-0.3,0-0.6,0.2-0.7,0.5c-0.1,0.2-0.1,0.5-0.1,1.4
		v4.5c0,0.9,0.1,1.2,0.1,1.4C23.2,19.1,23.4,19.3,23.8,19.3z M11.1,27.1H13h0.4v0.4v12h2.3v-12v-0.4H16h1.8v-2.3h-6.7V27.1z
		 M22,35.3c0,1.3,0,1.7-0.1,1.8c-0.1,0.3-0.4,0.6-0.7,0.6c-0.4,0-0.6-0.2-0.7-0.5c0-0.1-0.1-0.5-0.1-1.7v-7h-2.2V36c0,1,0,1.7,0,2
		c0,0.3,0.1,0.6,0.2,0.9c0.1,0.3,0.3,0.5,0.5,0.6c0.2,0.2,0.5,0.2,0.9,0.2c0.3,0,0.6-0.1,0.8-0.2c0.2-0.2,0.5-0.4,0.6-0.8l0.7,0.2
		l0,0.6h2.2V28.3H22L22,35.3z M31.6,28.9c-0.1-0.2-0.3-0.4-0.5-0.5c-0.2-0.1-0.5-0.2-0.9-0.2c-0.3,0-0.5,0.1-0.8,0.2
		c-0.2,0.2-0.5,0.4-0.7,0.7l-0.7,1v-1.2v-4.1H26v14.7H28l0.1-0.7l0.2-0.9l0.5,0.8c0.2,0.4,0.5,0.6,0.7,0.8c0.2,0.2,0.5,0.2,0.8,0.2
		c0.4,0,0.7-0.1,1-0.4c0.3-0.3,0.5-0.6,0.6-1c0.1-0.4,0.1-1.1,0.1-1.1v-5.8c0,0,0.1-0.6,0-1.8C31.9,29.4,31.8,29.2,31.6,28.9z
		 M29.7,35.4c0,1-0.1,1.4-0.1,1.5c-0.1,0.4-0.4,0.6-0.7,0.6c-0.3,0-0.6-0.2-0.7-0.5c-0.1-0.2-0.1-0.5-0.1-1.4v-3
		c0-1,0.1-1.3,0.1-1.4c0.1-0.3,0.4-0.5,0.7-0.5c0.3,0,0.6,0.2,0.7,0.6c0,0.2,0.1,0.5,0.1,1.4L29.7,35.4L29.7,35.4L29.7,35.4z
		 M35.7,34.2h0.4h3.4V33c0-1.1-0.1-2.4-0.3-2.9c-0.2-0.6-0.5-1-1-1.3c-0.5-0.3-1.1-0.5-1.8-0.5c-0.6,0-1.1,0.1-1.6,0.4
		c-0.5,0.3-0.8,0.7-1,1.2c-0.2,0.5-0.3,1.3-0.3,2.7V36c0,0.4,0.1,1.1,0.1,1.5c0.1,0.4,0.3,0.8,0.5,1.1c0.2,0.3,0.5,0.6,1,0.8
		c0.4,0.2,0.9,0.3,1.5,0.3c0.6,0,1-0.1,1.4-0.3c0.4-0.2,0.7-0.5,0.9-0.9c0.2-0.4,0.4-0.8,0.5-1.1c0.1-0.4,0.1-0.9,0.1-1.6v-0.5h-2
		v1.2c0,0.6,0,1.1-0.1,1.3c-0.1,0.3-0.4,0.5-0.8,0.5c-0.3,0-0.6-0.2-0.7-0.5c-0.1-0.1-0.1-0.4-0.1-1.1v-2.1L35.7,34.2L35.7,34.2
		L35.7,34.2z M35.7,32.7v-1.3c0-0.9,0-0.8,0.1-0.9c0.1-0.3,0.4-0.5,0.7-0.5c0.3,0,0.6,0.2,0.7,0.5c0,0.1,0.1,0,0.1,0.9v1.3V33h-0.4
		h-0.8h-0.4C35.7,33,35.7,32.7,35.7,32.7z"/>
</g>
</svg>
