<?xml version="1.0" encoding="utf-8"?>
<!-- Generator: Adobe Illustrator 22.0.0, SVG Export Plug-In . SVG Version: 6.00 Build 0)  -->
<svg version="1.1" id="Capa_1" xmlns="http://www.w3.org/2000/svg" xmlns:xlink="http://www.w3.org/1999/xlink" x="0px" y="0px"
	 viewBox="0 0 50 50" style="enable-background:new 0 0 50 50;" xml:space="preserve">
<style type="text/css">
	.st0{fill:#565555;}
</style>
<g>
	<path class="st0" d="M46.8,0.8H3.4C2,0.8,0.8,2,0.8,3.5v43.4c0,1.5,1.2,2.7,2.7,2.7h23.3V30.6h-6.4v-7.4h6.4v-5.4
		c0-6.3,3.8-9.7,9.5-9.7c2.7,0,5,0.2,5.7,0.3V15L38,15c-3.1,0-3.6,1.5-3.6,3.6v4.7h7.3l-1,7.4h-6.3v18.9h12.4c1.5,0,2.7-1.2,2.7-2.7
		V3.4C49.5,2,48.3,0.8,46.8,0.8z"/>
</g>
</svg>
