<?xml version="1.0" encoding="utf-8"?>
<!-- Generator: Adobe Illustrator 22.0.0, SVG Export Plug-In . SVG Version: 6.00 Build 0)  -->
<svg version="1.1" id="Capa_1" xmlns="http://www.w3.org/2000/svg" xmlns:xlink="http://www.w3.org/1999/xlink" x="0px" y="0px"
	 viewBox="0 0 50 50" style="enable-background:new 0 0 50 50;" xml:space="preserve">
<style type="text/css">
	.st0{fill:#565555;}
</style>
<g>
	<g id="post-instagram">
		<path class="st0" d="M43.4,2H6.6C4.1,2,2,4.1,2,6.6v36.8C2,45.9,4.1,48,6.6,48h36.8c2.5,0,4.6-2.1,4.6-4.6V6.6
			C48,4.1,45.9,2,43.4,2z M25,15.8c5.1,0,9.2,4.1,9.2,9.2s-4.1,9.2-9.2,9.2s-9.2-4.1-9.2-9.2S19.9,15.8,25,15.8z M7.8,43.4
			c-0.7,0-1.2-0.5-1.2-1.2V22.7h4.8c-0.2,0.7-0.2,1.6-0.2,2.3c0,7.6,6.2,13.8,13.8,13.8S38.8,32.6,38.8,25c0-0.7,0-1.6-0.2-2.3h4.8
			v19.5c0,0.7-0.5,1.2-1.2,1.2H7.8z M43.4,12.4c0,0.7-0.5,1.1-1.2,1.1h-4.6c-0.7,0-1.2-0.5-1.2-1.1V7.8c0-0.7,0.5-1.2,1.2-1.2h4.6
			c0.7,0,1.2,0.5,1.2,1.2V12.4z"/>
	</g>
</g>
</svg>
