<?xml version="1.0" encoding="utf-8"?>
<!-- Generator: Adobe Illustrator 22.0.0, SVG Export Plug-In . SVG Version: 6.00 Build 0)  -->
<svg version="1.1" id="Capa_1" xmlns="http://www.w3.org/2000/svg" xmlns:xlink="http://www.w3.org/1999/xlink" x="0px" y="0px"
	 viewBox="0 0 50 50" style="enable-background:new 0 0 50 50;" xml:space="preserve">
<style type="text/css">
	.st0{fill:#565555;}
</style>
<g>
	<path class="st0" d="M49.5,9.8c-1.9,0.8-3.9,1.3-5.8,1.6c2.2-1.3,3.6-3.1,4.4-5.5c-2,1.2-4.1,2-6.4,2.4c-2-2.1-4.4-3.2-7.3-3.2
		c-2.8,0-5.1,1-7.1,2.9c-2,2-2.9,4.3-2.9,7.1c0,0.7,0.1,1.5,0.2,2.3c-4.1-0.2-7.9-1.2-11.5-3.1C9.5,12.5,6.4,10,3.9,7
		C3,8.5,2.6,10.2,2.6,12c0,1.7,0.4,3.3,1.2,4.8c0.8,1.5,1.9,2.7,3.3,3.6c-1.6-0.1-3.1-0.5-4.5-1.3v0.1c0,2.4,0.8,4.6,2.3,6.4
		c1.5,1.8,3.4,3,5.8,3.5c-0.9,0.2-1.8,0.3-2.6,0.3c-0.6,0-1.2-0.1-1.9-0.2c0.6,2,1.8,3.7,3.5,5c1.7,1.3,3.7,2,5.8,2
		c-3.6,2.9-7.8,4.3-12.5,4.3c-0.9,0-1.7,0-2.4-0.1c4.7,3,9.8,4.5,15.4,4.5c3.6,0,6.9-0.6,10-1.7c3.1-1.1,5.8-2.6,8-4.5
		c2.2-1.9,4.1-4.1,5.7-6.5c1.6-2.5,2.8-5,3.6-7.7c0.8-2.7,1.2-5.4,1.2-8.1c0-0.6,0-1,0-1.3C46.4,13.6,48.1,11.9,49.5,9.8z"/>
</g>
</svg>
