<?xml version="1.0" encoding="utf-8"?>
<!-- Generator: Adobe Illustrator 22.0.0, SVG Export Plug-In . SVG Version: 6.00 Build 0)  -->
<svg version="1.1" id="Слой_1" xmlns="http://www.w3.org/2000/svg" xmlns:xlink="http://www.w3.org/1999/xlink" x="0px" y="0px"
	 viewBox="0 0 446 540.7" style="enable-background:new 0 0 446 540.7;" xml:space="preserve">
<style type="text/css">
	.st0{display:none;fill:#48B764;}
	.st1{display:none;}
	.st2{display:inline;fill:#016937;}
	.st3{display:none;fill:#427A5B;}
	.st4{display:none;fill:#016937;}
	.st5{fill:#427A5B;}
	.st6{display:inline;fill:#427A5B;}
	.st7{display:inline;}
	.st8{fill:#FFFFFF;}
	.st9{display:none;fill:#FFFFFF;}
	.st10{font-family:'Exo2-Bold';}
	.st11{font-size:68px;}
</style>
<g id="Слой_8">
</g>
<g id="Слой_6">
	<path class="st0" d="M464.7,324.7c-171.1,0-389.4,0-544,0c0,117.8,121.8,213.3,272,213.3S464.7,442.5,464.7,324.7z"/>
	<g id="Слой_10">
	</g>
	<g id="Слой_7">
		<g class="st1">
			<path class="st2" d="M221.9,178.5c0,0,0.2-149.2,0-150.7c-0.4-4-1.5-6.2-1.6-8C220.1,17,225,6.9,228,6.2
				c3.1,0.3,7.1,10.6,7.1,13.3c-0.9,3.2-1.8,8-1.8,8l1.5,150.7c0,0,10.6,1.5,12.1,8.8c0.8,7-6.5,7-4.9,16c-0.4,9.7,4.9,10,5.3,20.7
				c0.8,8.3,2.7,118.3,2.3,131.3c0,22.3-40.6,22-42.5,3c-0.4-9.2,0-124.3,0.4-134.3s3-11.7,6.5-19.7c2.7-11-5.7-10.3-4.6-17.7
				C210.5,179.4,221.9,178.5,221.9,178.5z"/>
		</g>
		<path class="st3" d="M221.9,178.5c0,0,0.2-149.2,0-150.7c-0.4-4-1.5-6.2-1.6-8C220.1,17,225,6.9,228,6.2
			c3.1,0.3,7.1,10.6,7.1,13.3c-0.9,3.2-1.8,8-1.8,8l1.5,150.7c0,0,10.6,1.5,12.1,8.8c0.8,7-6.5,7-4.9,16c-0.4,9.7,4.9,10,5.3,20.7
			c0.4,4,1,31,1.5,59.6c-1.3-3.1-33.2-7.3-41.8,0.7c0.1-28.7,0.3-55.7,0.5-60.3c0.4-10,3-11.7,6.5-19.7c2.7-11-5.7-10.3-4.6-17.7
			C210.5,179.4,221.9,178.5,221.9,178.5z"/>
		<g class="st1">
			<path class="st2" d="M233.3,244.1c1.4,42.8-8,65.7-8,65.7"/>
		</g>
		<g id="Слой_11">
		</g>
		<g>
			<path class="st4" d="M218.3,176.4c10-2.7,20.7,0.1,20.7,0.1"/>
			<g>
				<path class="st5" d="M221.9,173c4.2-0.6,8.6-0.7,12.8,0l-1.4-145.5c0,0,0.9-4.8,1.8-8c0-2.7-4-13-7.1-13.3
					c-3,0.7-7.9,10.8-7.7,13.6c0.1,1.8,1.2,4,1.6,8C222.1,29.1,221.9,146.1,221.9,173z"/>
				<path class="st5" d="M247.3,223.7c-0.4-10.7-5.7-11-5.3-20.7c-1.6-9,5.7-9,4.9-16c-1.1-5.5-7.4-7.7-10.5-8.5
					c-4.8-0.9-9.7-0.9-14.5-0.2c0,0.1,0,0.2,0,0.2s-11.4,0.9-12.5,7.8c-1.1,7.4,7.3,6.7,4.6,17.7c-3.5,8-6.1,9.7-6.5,19.7
					c-0.2,4.6-0.4,31.6-0.5,60.3c8.6-8,40.5-3.8,41.8-0.7C248.3,254.7,247.7,227.7,247.3,223.7z"/>
			</g>
		</g>
	</g>
	<g>
		<g class="st1">
			<path class="st2" d="M196.9,371.3c-30.6-20.5-54.7-116.7-65.4-141.4c-5.3-12.3-32.1,0.1-58.7-23.4
				c-12.4-10.9-21.6-31.9-22.8-50.2c-1.3-19.3,2.8-28.5,6.2-37.2c0.9-2.2,3.9-2.4,5.1-0.3c0,0,25.5,43.2,26,43.4
				c3.3,5.1,13.9,22.8,44.6-6.4c17.1-16.3-18-36.1-32.4-63.5c-1.2-2.2-0.4-4.7,2.1-4.7c17.3,0.2,56.4,3.8,76.3,52.8
				c9.6,24.6,4.9,37.3-11.7,64.4c-5.1,19.7,69.1,119.7,59.8,160.7C223.2,377.4,213.3,382.2,196.9,371.3z"/>
		</g>
		<path class="st3" d="M157.7,304.5c-12.2-30.2-20.6-62-26.1-74.7c-5.3-12.3-32.1,0.1-58.7-23.4c-12.4-10.9-21.6-31.9-22.8-50.2
			c-1.3-19.3,2.8-28.5,6.2-37.2c0.9-2.2,3.9-2.4,5.1-0.3c0,0,25.5,43.2,26,43.4c3.3,5.1,13.9,22.8,44.6-6.4
			c17.1-16.3-18-36.1-32.4-63.5c-1.2-2.2-0.4-4.7,2.1-4.7c17.3,0.2,56.4,3.8,76.3,52.8c9.6,24.6-4.1,44.7-11.6,65.9
			c-2.8,7.9,18.5,38.8,34,74.3C201.9,284.4,158.7,307,157.7,304.5z"/>
		<g>
			<path class="st3" d="M106.1,200.3c18.2,4,38.5-9.8,47.9-28"/>
			<path class="st5" d="M200.4,280.5c-15.5-35.5-36.8-66.4-34-74.3c7.5-21.2,21.2-41.3,11.6-65.9c-19.9-49-59-52.6-76.3-52.8
				c-2.5,0-3.3,2.5-2.1,4.7c14.4,27.4,49.5,47.2,32.4,63.5c-30.7,29.2-41.3,11.5-44.6,6.4c-0.5-0.2-26-43.4-26-43.4
				c-1.2-2.1-4.2-1.9-5.1,0.3c-3.4,8.7-7.5,17.9-6.2,37.2c1.2,18.3,10.4,39.3,22.8,50.2c26.6,23.5,53.4,11.1,58.7,23.4
				c5.5,12.7,13.9,44.5,26.1,74.7C158.7,307,201.9,284.4,200.4,280.5z M157.9,171.7c-10.3,19.2-32.1,35.5-54.8,31.1
				c-2-0.4-0.6-2.6,0.2-3.4c1.5-1.4,3.9-2.1,5.8-1.7c17.5,3.4,33.3-10.5,41-25C151.4,170.3,159.7,168.4,157.9,171.7z"/>
		</g>
	</g>
	<g id="Слой_9">
		<g>
			<path class="st3" d="M383.4,113.6c3,33.8-9,53.9-9,53.9"/>
			<path class="st5" d="M343.1,171.5c-15.2-9.9-15.3,0.3-22.3,17.7c-4.4,10.7-15.3,29.3-21.8,39.9c3.8-0.4,7.6,0,11.3,1.6
				c5.2,2.3,10,6.7,12.6,11.9c2-4.5,4.2-9.6,5.9-14.1C333.8,216,353.3,178.2,343.1,171.5z"/>
		</g>
		<g class="st1">
			<path class="st6" d="M307.1,211.6c-28.4-10.9-42.4-29.5-37.1-47.7c7.2-25,97.9-116.8,120.7-98.2s6.4,117.5-5.6,147.9
				C371.2,248.7,307.1,211.6,307.1,211.6"/>
		</g>
		<g>
			<path class="st5" d="M392.7,64.7c-22.8-18.6-113.5,73.2-120.7,98.2c-5.2,17.8,8.1,36,35.3,47c1.9-3.3,3.8-6.7,5.6-10.1
				c3.9-7.2,7.3-14.5,10.1-22.2c1.8-4.8,3.6-13.3,8.8-15.7c4.4-2.1,12.3,1.8,14.7,5.7c0.5,0.8,0.9,1.7,1.2,2.7c0,0,0,0.1,0.1,0.1
				c0.1,0.1,0.1,0.2,0.2,0.4c0.1,0.2,0.2,0.4,0.3,0.6c0.1,0.1,0.1,0.3,0.2,0.4c0.1,0.3,0.2,0.7,0.3,1c0,0.1,0.1,0.3,0.1,0.4
				c0.1,0.3,0.1,0.6,0.2,0.8c0,0.2,0,0.4,0.1,0.5c0,0.3,0.1,0.6,0.1,0.9c0,0.2,0,0.3,0,0.5c0,0.4,0,0.9,0,1.3c0,0.2,0,0.4,0,0.7
				c0,0.3,0,0.6-0.1,0.9c0,0.2,0,0.5-0.1,0.7c0,0.3-0.1,0.7-0.1,1c-0.1,0.4-0.1,0.8-0.2,1.2c-0.1,0.3-0.1,0.6-0.2,1
				c-0.1,0.3-0.1,0.6-0.2,0.9c-0.1,0.3-0.1,0.6-0.2,0.9c-0.1,0.3-0.1,0.6-0.2,1c-0.1,0.4-0.2,0.7-0.3,1.1c-0.1,0.5-0.3,1.1-0.4,1.6
				c-0.1,0.2-0.1,0.5-0.2,0.7c-0.1,0.4-0.2,0.8-0.3,1.2c0,0,0,0.1,0,0.1c-2.6,11-7.4,21.6-12,31.9c19.5,6.9,44.4,10.7,52.4-9.6
				C399.1,182.2,415.5,83.3,392.7,64.7z M376.7,171.6c-0.6,1-1.4-3.3-1.4-3.7c-0.1-2.1-0.3-4.7,0.8-6.5c8.1-13.7,9.4-32,8.2-47.4
				c-0.1-0.7-0.4-6.1,0.8-6.4c1.3-0.3,1.3,2.8,1.4,3.7C388.1,130.7,387,154.2,376.7,171.6z"/>
		</g>
		<g class="st1">
			<path class="st2" d="M281.7,240.5c20-7.9,32.3,1.2,39.2,14c6.9,12.8-16.6,77.6-16.6,77.6s-31,38-53.1,28.7
				C223.2,343.1,256.7,255.2,281.7,240.5z"/>
			<g class="st7">
				<path class="st8" d="M281.7,244.9c14.7-5.5,28.8-2.4,37.4,11.2c4.5,7,0.9,16.9-0.8,24.4c-2.5,10.8-5.7,21.4-9.1,31.9
					c-1.5,4.6-3.2,12.1-5.3,15.6c-2.8,4.8-10.2,10.9-14.9,14.9c-8.3,7.1-19,15-30.5,14.9c-23.9-0.2-16.7-36.1-13-49.8
					c3.6-13.4,8.9-26.5,15.7-38.6C266.4,260.6,272.7,250.3,281.7,244.9c2.1-1.3,0-8.7,0-8.8c-8.7,5.3-14.8,14.5-19.8,23.1
					c-6.9,11.8-12.2,24.5-16.2,37.6c-3.7,12.4-6.3,25.4-6.1,38.4c0.1,9.5,1.4,21.1,8.8,27.9c9.1,8.3,23.7,0.9,32.1-4.7
					s17.3-13,23.4-21.3c2.9-3.9,3.9-9.7,5.4-14.3c3.9-11.7,7.5-23.6,10.3-35.7c2.4-10.5,6-24.2,2.5-34.8c-2-6.2-7.4-12-12.8-15.4
					c-8.6-5.3-18.5-4.3-27.6-0.9C279.7,236.9,281.2,245.1,281.7,244.9z"/>
			</g>
		</g>
		<g>
			<path class="st5" d="M281.7,240.5c17.6-10.5,32-3.3,39,9.5c2.9,5.3,3.1,25.3-0.6,40.1c-7.4-1-20.5-1.7-71.2-6.9
				C257,263.6,267.3,250,281.7,240.5z"/>
		</g>
	</g>
</g>
<g id="Слой_12">
</g>
<g id="Слой_2_1_">
	<g>
		<g>
			<path class="st5" d="M313.3,448.1c-4.5,5.9-8.9,8.7-15.9,10.8c-7.2,2.2-14.4,4.1-21.7,6c-5.6,1.4-12.9,2-18,4.6
				c-2.3,1.2-4.4,3.2-6.5,4.8c-6.3,4.6-13.1,8.3-20.6,10.6c-5.2,1.7-10.5,2.7-15.9,3.4c-3.3,0.4-6.6,0.7-9.9,0.8
				c-2.3,0.1-4.5-0.1-6.6,0.9c-6.3,3.1-10,11.6-13.5,17.3c-3.7,6.2-7.8,13.9-14.6,17.3c-4.3,2.2-9.3,1-14,0.5
				c-7-0.8-13.9-1.8-20.8-3.1c-12-2.3-24-5.5-35.2-10.4c-8.6-3.8-21.1-9.6-25.2-18.8c-4.4-9.9,1.5-21.4,7.3-29.2
				c1.3-1.8-4.2-7.9-4.4-7.6c-5.6,7.6-10,16.5-8.7,26.1c1.2,8.6,6.3,16.8,12.4,22.8c17,16.9,44.2,22.8,67,26.3
				c6.7,1,13.8,2.4,20.5,2.3c3.7-0.1,6.8-1.7,9.4-4.2c6.6-6.1,10.5-14.8,15.3-22.2c2.1-3.2,4.3-6.7,7.5-8.8
				c4.2-2.8,10.5-1.6,15.3-2.1c10.9-1.1,21.6-3.9,31.1-9.3c3.5-2,6.7-4.3,10-6.7c1.2-0.9,2.4-1.9,3.6-2.7c2.7-1.6,6.1-2,9.1-2.7
				c8.4-2.1,16.8-4.1,25.1-6.5c4.2-1.2,8.9-2.1,12.7-4c3.8-1.9,6.7-5.3,9.2-8.6C319,453.9,313.5,447.7,313.3,448.1L313.3,448.1z"/>
		</g>
	</g>
	<g>
		<g>
			<path class="st5" d="M109.3,385.9c3.8-13.6,7.2-27.4,12.1-40.7c1.8-4.8,3.7-9.7,6.6-14c3.1-4.5,7.9-7.2,12.3-10.3
				c11.8-8.3,23.9-16.4,36.6-23.3c6.6-3.6,13.4-6.8,20.4-9.5c6.8-2.6,14.4-5.4,21.8-5.3c15.6,0,31.4,1.6,47,2.8
				c14,1.1,28.1,2.3,42,4.2c6.1,0.9,20.3,1.3,22.3,8.7c2,7.7-1.2,18-7.8,22.6c-6.5,4.6-16,2-23.2,1c-9.1-1.2-18.6-3-27.7-2
				c-2.5,0.3-7.1,0.8-8.5,3.4c-1.1,2.1,0.7,4.8,1.9,6.6c3.3,4.9,10,4.8,15.4,5.3c9.8,0.9,19.6,1.3,29.3,2.2c4.5,0.4,9,0.9,13.5,1.7
				c1.9,0.4,3.8,0.7,5.5,1.7c1.8,1.1,2,2.4,2.2,4.6c0.6,5.7-0.6,16.4-6.5,19.4c-6.4,3.3-16.6,1.4-23.4,1.1c-8.5-0.4-17.5-1.3-26,0
				c-6.4,1-9.9,3.8-6.1,10c3.5,5.6,10,5,16,5c10.1,0.1,20.2-0.6,30.3,0.2c3.9,0.3,11.1,0.7,13.2,4.5c0.3,0.5,2.1,3.8,3,3.3
				s-1.2-3.9-1.4-4.3c-1.8-3.3-4-6.5-7.3-8.4c-4.6-2.6-10.6-2.8-15.8-3c-10.1-0.4-20.2,0.4-30.2-0.1c-1.8-0.1-3.6-0.2-5.3-0.5
				c-2.8-0.5-3.8-2.3-1.4,2s1,2.3,3.4,0.6c1.3-0.9,2.9-1.3,4.3-1.6c9.1-1.9,19-0.7,28.1-0.3c6.7,0.3,16.6,2,22.8-1.1
				c5.8-3,7.1-13.1,6.9-18.8c-0.3-7.3-3.8-16.2-10.3-20.2c-3.6-2.2-8.5-2.5-12.6-3c-5.1-0.6-10.2-1-15.4-1.4
				c-9.3-0.7-18.8-0.8-27.9-2.4c-1.4-0.2-2.7-0.8-4.1-0.9c-0.3,0-1-0.6-1.2-0.5c0.5-0.2,2.4,5.9,3.1,5.9c0,0,0.2-0.6,0.3-0.6
				c1.1-0.4,2.1-1.6,3.3-2.1c1.9-0.7,3.9-1,5.9-1.1c10.2-0.8,20.7,1.4,30.8,2.7c7.5,0.9,15.8,2.4,21.6-3.7
				c11.1-11.7,6.5-35.8-9.2-41.3c-9.7-3.4-20.8-3.9-30.9-4.9c-16.3-1.7-32.6-2.9-49-3.9c-8-0.5-16-0.9-24-1.2
				c-6.9-0.3-13.6,1.9-20.1,4.1c-14.5,5.1-28.1,12.7-41,21c-6.3,4-12.4,8.2-18.5,12.5c-4.6,3.2-9.7,6-13,10.7
				c-6.4,9.4-9.4,21.3-12.6,32.1c-2.2,7.7-4.3,15.4-6.5,23C104.1,380.9,109.2,386.4,109.3,385.9L109.3,385.9z"/>
		</g>
	</g>
</g>
<g id="Слой_5">
	<path class="st9" d="M430.8,453.7H-13.8c-4.4,0-7.9-3.6-7.9-7.9v-51.5c0-4.4,3.6-7.9,7.9-7.9h444.7c4.4,0,7.9,3.6,7.9,7.9v51.5
		C438.7,450.1,435.2,453.7,430.8,453.7z"/>
	<text transform="matrix(1 0 0 1 11.3288 434.3354)" class="st5 st10 st11">MyMastering</text>
</g>
<g id="Слой_1_1_" class="st1">
</g>
<g id="Слой_4" class="st1">
	<g class="st7">
		<path d="M-168.2-482.9c24.7-1.5,49.5-2.2,74.2-2.8c12.4-0.3,24.7-0.5,37.1-0.6c12.4-0.2,24.7-0.2,37.1-0.3l37.1,0.1l18.6,0.2
			l9.3,0.1l9.3,0.2c24.7,0.5,49.5,1.2,74.2,2.6v1.7c-24.7,1.4-49.5,2.1-74.2,2.6l-9.3,0.2l-9.3,0.1l-18.6,0.2l-37.1,0.1
			c-12.4-0.1-24.7-0.1-37.1-0.3c-12.4-0.2-24.7-0.3-37.1-0.6c-24.7-0.6-49.5-1.3-74.2-2.8L-168.2-482.9L-168.2-482.9z"/>
	</g>
</g>
</svg>
