<?xml version="1.0" encoding="utf-8"?>
<!-- Generator: Adobe Illustrator 22.0.0, SVG Export Plug-In . SVG Version: 6.00 Build 0)  -->
<svg version="1.1" id="Слой_1" xmlns="http://www.w3.org/2000/svg" xmlns:xlink="http://www.w3.org/1999/xlink" x="0px" y="0px"
	 viewBox="0 0 281.2 551.7" style="enable-background:new 0 0 281.2 551.7;" xml:space="preserve">
<style type="text/css">
	.st0{display:none;}
	.st1{display:inline;fill:#BDE8FF;}
	.st2{display:inline;fill:#9B9B9B;}
	.st3{enable-background:new    ;}
	.st4{clip-path:url(#SVGID_2_);enable-background:new    ;}
	.st5{fill:#092131;}
	.st6{fill:#CC7025;}
	.st7{fill:#DB9046;}
	.st8{fill:#EAB14B;}
	.st9{fill:#E67B09;}
	.st10{fill:#FFDC48;}
	.st11{fill:#E8B785;}
	.st12{fill:#F2CBA0;}
	.st13{fill:#C67A36;}
	.st14{fill:#5F2900;}
	.st15{display:inline;fill:#D6B07D;}
	.st16{display:inline;opacity:0.8;fill:#F6E9D7;enable-background:new    ;}
	.st17{display:inline;}
	.st18{fill:#612B05;}
	.st19{fill:#F6E9D7;}
	.st20{fill:#5A8055;}
	.st21{fill:#EFEFEF;}
	.st22{fill:#B05C3A;}
	.st23{fill:#3B4D57;}
	.st24{fill:#DBDBDB;}
	.st25{opacity:0.1;fill:#FFFFFF;enable-background:new    ;}
	.st26{fill:#4B8B67;}
	.st27{fill:#427A5B;}
	.st28{fill:#D1D1D1;}
	.st29{fill:#403F3F;}
	.st30{fill:#565555;}
	.st31{fill:#767875;}
	.st32{fill:none;stroke:#474747;stroke-width:0.6321;stroke-linecap:round;stroke-miterlimit:10;stroke-dasharray:1.8963;}
	.st33{fill:#C9C9C9;}
	.st34{fill:#96AA7B;}
	.st35{fill:#B4CD93;}
	.st36{fill:#A32324;}
	.st37{fill:#E54D4A;}
	.st38{fill:#949494;}
	.st39{opacity:0.12;enable-background:new    ;}
	.st40{opacity:0.2;enable-background:new    ;}
</style>
<g id="BACKGROUND" class="st0">
	<rect x="-95.7" y="77.7" class="st1" width="500" height="500"/>
</g>
<g id="DESIGNED_BY_FREEPIK" class="st0">
	<path id="_x3C_Grupo_x3E__1_" class="st2" d="M79.5,554.1v-0.2c-0.2,0.3-0.5,0.5-0.7,0.7s-0.5,0.3-0.7,0.4
		c-0.3,0.1-0.6,0.1-0.9,0.1c-0.4,0-0.8-0.1-1.2-0.3s-0.7-0.4-0.9-0.8c-0.3-0.3-0.5-0.7-0.6-1.2c-0.1-0.4-0.2-0.9-0.2-1.4
		c0-1.1,0.3-1.9,0.8-2.5s1.2-0.9,2.1-0.9c0.5,0,0.9,0.1,1.3,0.3c0.3,0.2,0.7,0.4,1,0.8v-2.6c0-0.4,0.1-0.6,0.2-0.8
		c0.1-0.2,0.3-0.3,0.6-0.3s0.5,0.1,0.6,0.3s0.2,0.4,0.2,0.7v7.7c0,0.3-0.1,0.6-0.2,0.7c-0.2,0.2-0.4,0.2-0.6,0.2
		c-0.2,0-0.4-0.1-0.6-0.3C79.5,554.7,79.5,554.4,79.5,554.1z M76,551.6c0,0.5,0.1,0.9,0.2,1.2c0.1,0.3,0.3,0.6,0.6,0.7
		c0.3,0.2,0.5,0.3,0.8,0.3s0.6-0.1,0.8-0.2c0.3-0.2,0.5-0.4,0.6-0.7c0.2-0.3,0.2-0.7,0.2-1.2s-0.1-0.9-0.2-1.2
		c-0.2-0.3-0.4-0.6-0.6-0.8c-0.3-0.2-0.5-0.3-0.8-0.3s-0.6,0.1-0.9,0.3c-0.3,0.2-0.4,0.4-0.6,0.8C76.1,550.7,76,551.1,76,551.6z
		 M87.1,552h-3.4c0,0.4,0.1,0.7,0.2,1c0.2,0.3,0.4,0.5,0.6,0.7s0.5,0.2,0.9,0.2c0.2,0,0.4,0,0.6-0.1c0.2,0,0.3-0.1,0.5-0.2
		c0.2-0.1,0.3-0.2,0.4-0.3c0.1-0.1,0.3-0.3,0.5-0.5c0.1-0.1,0.2-0.1,0.4-0.1s0.3,0,0.4,0.1c0.1,0.1,0.2,0.2,0.2,0.4
		s-0.1,0.3-0.2,0.6c-0.1,0.2-0.3,0.4-0.6,0.6c-0.2,0.2-0.6,0.4-0.9,0.5c-0.4,0.1-0.8,0.2-1.3,0.2c-1.1,0-2-0.3-2.6-1
		c-0.6-0.6-0.9-1.5-0.9-2.6c0-0.5,0.1-1,0.2-1.4c0.2-0.4,0.4-0.8,0.7-1.1s0.7-0.6,1.1-0.7c0.4-0.2,0.9-0.3,1.4-0.3
		c0.7,0,1.3,0.1,1.7,0.4c0.5,0.3,0.9,0.7,1.1,1.1c0.2,0.5,0.4,0.9,0.4,1.4c0,0.4-0.1,0.7-0.4,0.9C88,551.9,87.6,552,87.1,552z
		 M83.7,551h3.2c0-0.6-0.2-1-0.5-1.3s-0.6-0.4-1.1-0.4c-0.4,0-0.8,0.1-1.1,0.4C84,550,83.8,550.4,83.7,551z M95.1,552.8
		c0,0.5-0.1,0.9-0.4,1.2c-0.2,0.3-0.6,0.6-1,0.8c-0.5,0.2-1,0.3-1.7,0.3c-0.6,0-1.2-0.1-1.6-0.3c-0.4-0.2-0.8-0.4-1-0.7
		s-0.3-0.6-0.3-0.9c0-0.2,0.1-0.4,0.2-0.5c0.1-0.1,0.3-0.2,0.5-0.2s0.3,0,0.4,0.1c0.1,0.1,0.2,0.2,0.3,0.4c0.2,0.3,0.4,0.5,0.6,0.7
		c0.2,0.2,0.6,0.2,1,0.2c0.3,0,0.6-0.1,0.9-0.2c0.2-0.2,0.3-0.3,0.3-0.5c0-0.3-0.1-0.5-0.3-0.7c-0.2-0.1-0.6-0.3-1.1-0.4
		c-0.6-0.1-1.1-0.3-1.5-0.5s-0.7-0.4-0.9-0.6c-0.2-0.3-0.3-0.6-0.3-1c0-0.3,0.1-0.7,0.3-1s0.5-0.6,0.9-0.7c0.4-0.2,0.9-0.3,1.5-0.3
		c0.5,0,0.9,0,1.2,0.1c0.4,0.1,0.7,0.2,0.9,0.4s0.4,0.3,0.5,0.5s0.2,0.4,0.2,0.6c0,0.2-0.1,0.4-0.2,0.5c-0.1,0.1-0.3,0.2-0.6,0.2
		c-0.2,0-0.3-0.1-0.5-0.2c-0.1-0.1-0.3-0.3-0.4-0.5c-0.1-0.2-0.3-0.3-0.5-0.4c-0.2-0.1-0.4-0.2-0.7-0.2s-0.6,0.1-0.8,0.2
		c-0.2,0.1-0.3,0.3-0.3,0.5s0.1,0.3,0.2,0.4c0.2,0.1,0.4,0.2,0.6,0.3c0.3,0.1,0.6,0.2,1.1,0.3s1,0.3,1.3,0.5s0.6,0.4,0.8,0.6
		C95,552.2,95.1,552.5,95.1,552.8z M96.8,547.2c-0.2,0-0.4-0.1-0.6-0.2c-0.2-0.1-0.3-0.4-0.3-0.6c0-0.2,0.1-0.4,0.3-0.6
		c0.2-0.2,0.4-0.2,0.6-0.2c0.2,0,0.4,0.1,0.6,0.2c0.2,0.1,0.3,0.4,0.3,0.6c0,0.3-0.1,0.5-0.3,0.6C97.3,547.2,97.1,547.2,96.8,547.2z
		 M97.7,549v5c0,0.3-0.1,0.6-0.2,0.8c-0.2,0.2-0.4,0.3-0.6,0.3c-0.3,0-0.5-0.1-0.6-0.3c-0.2-0.2-0.2-0.4-0.2-0.8v-5
		c0-0.3,0.1-0.6,0.2-0.8c0.2-0.2,0.4-0.3,0.6-0.3c0.3,0,0.5,0.1,0.6,0.3C97.6,548.5,97.7,548.7,97.7,549z M105.3,549.3v5.1
		c0,0.6-0.1,1.1-0.2,1.5c-0.1,0.4-0.3,0.8-0.6,1c-0.3,0.3-0.6,0.5-1.1,0.6c-0.4,0.1-1,0.2-1.6,0.2s-1.1-0.1-1.6-0.3
		s-0.8-0.4-1.1-0.7s-0.4-0.5-0.4-0.8c0-0.2,0.1-0.4,0.2-0.5c0.1-0.1,0.3-0.2,0.5-0.2c0.3,0,0.5,0.1,0.7,0.3c0.1,0.1,0.2,0.2,0.3,0.3
		s0.2,0.2,0.3,0.3s0.3,0.1,0.4,0.2c0.2,0,0.4,0.1,0.6,0.1c0.5,0,0.8-0.1,1-0.2c0.2-0.1,0.4-0.3,0.5-0.5s0.2-0.5,0.2-0.7
		c0-0.3,0-0.7,0-1.2c-0.3,0.4-0.6,0.7-0.9,0.9c-0.4,0.2-0.8,0.3-1.3,0.3c-0.6,0-1.1-0.1-1.5-0.4c-0.4-0.3-0.8-0.7-1-1.2
		s-0.3-1.2-0.3-1.9c0-0.5,0.1-1,0.2-1.4c0.1-0.4,0.3-0.8,0.6-1.1s0.6-0.5,0.9-0.7c0.3-0.1,0.7-0.2,1.1-0.2c0.5,0,0.9,0.1,1.3,0.3
		c0.4,0.2,0.7,0.5,1,0.9v-0.2c0-0.3,0.1-0.5,0.2-0.7c0.1-0.2,0.3-0.2,0.6-0.2s0.6,0.1,0.7,0.3C105.3,548.6,105.3,548.9,105.3,549.3z
		 M100.3,551.5c0,0.7,0.2,1.2,0.5,1.6c0.3,0.4,0.7,0.5,1.2,0.5c0.3,0,0.6-0.1,0.8-0.2c0.3-0.2,0.5-0.4,0.6-0.7
		c0.2-0.3,0.2-0.7,0.2-1.1c0-0.7-0.2-1.3-0.5-1.7s-0.7-0.6-1.2-0.6s-0.9,0.2-1.2,0.6C100.4,550.3,100.3,550.8,100.3,551.5z
		 M108.1,549v0.2c0.3-0.4,0.6-0.7,1-0.9s0.8-0.3,1.3-0.3s0.9,0.1,1.2,0.3c0.4,0.2,0.6,0.5,0.8,0.8c0.1,0.2,0.2,0.4,0.2,0.7
		c0,0.2,0.1,0.6,0.1,0.9v3.2c0,0.3-0.1,0.6-0.2,0.8c-0.2,0.2-0.4,0.3-0.6,0.3c-0.3,0-0.5-0.1-0.6-0.3c-0.2-0.2-0.2-0.4-0.2-0.8V551
		c0-0.6-0.1-1-0.2-1.3c-0.2-0.3-0.5-0.5-1-0.5c-0.3,0-0.6,0.1-0.8,0.3c-0.3,0.2-0.4,0.4-0.6,0.8c-0.1,0.3-0.1,0.7-0.1,1.5v2.2
		c0,0.4-0.1,0.6-0.2,0.8c-0.2,0.2-0.4,0.3-0.6,0.3c-0.3,0-0.5-0.1-0.6-0.3c-0.2-0.2-0.2-0.4-0.2-0.8v-5c0-0.3,0.1-0.6,0.2-0.7
		c0.1-0.2,0.3-0.2,0.6-0.2c0.2,0,0.3,0,0.4,0.1c0.1,0.1,0.2,0.2,0.3,0.3C108.1,548.6,108.1,548.8,108.1,549z M118.7,552h-3.4
		c0,0.4,0.1,0.7,0.2,1c0.2,0.3,0.4,0.5,0.6,0.7c0.3,0.2,0.5,0.2,0.9,0.2c0.2,0,0.4,0,0.6-0.1c0.2,0,0.3-0.1,0.5-0.2
		c0.2-0.1,0.3-0.2,0.4-0.3c0.1-0.1,0.3-0.3,0.5-0.5c0.1-0.1,0.2-0.1,0.4-0.1s0.3,0,0.4,0.1c0.1,0.1,0.2,0.2,0.2,0.4
		s-0.1,0.3-0.2,0.6c-0.1,0.2-0.3,0.4-0.6,0.6c-0.2,0.2-0.6,0.4-0.9,0.5c-0.4,0.1-0.8,0.2-1.3,0.2c-1.1,0-2-0.3-2.6-1
		c-0.6-0.6-0.9-1.5-0.9-2.6c0-0.5,0.1-1,0.2-1.4c0.2-0.4,0.4-0.8,0.7-1.1s0.7-0.6,1.1-0.7c0.4-0.2,0.9-0.3,1.4-0.3
		c0.7,0,1.3,0.1,1.7,0.4c0.5,0.3,0.9,0.7,1.1,1.1c0.2,0.5,0.4,0.9,0.4,1.4c0,0.4-0.1,0.7-0.4,0.9C119.5,551.9,119.1,552,118.7,552z
		 M115.3,551h3.2c0-0.6-0.2-1-0.5-1.3s-0.6-0.4-1.1-0.4c-0.4,0-0.8,0.1-1.1,0.4C115.5,550,115.3,550.4,115.3,551z M125.8,554.1v-0.2
		c-0.2,0.3-0.5,0.5-0.7,0.7s-0.5,0.3-0.7,0.4c-0.3,0.1-0.6,0.1-0.9,0.1c-0.4,0-0.8-0.1-1.2-0.3s-0.7-0.4-0.9-0.8
		c-0.3-0.3-0.5-0.7-0.6-1.2c-0.1-0.4-0.2-0.9-0.2-1.4c0-1.1,0.3-1.9,0.8-2.5s1.2-0.9,2.1-0.9c0.5,0,0.9,0.1,1.3,0.3
		c0.3,0.2,0.7,0.4,1,0.8v-2.6c0-0.4,0.1-0.6,0.2-0.8c0.1-0.2,0.3-0.3,0.6-0.3s0.5,0.1,0.6,0.3s0.2,0.4,0.2,0.7v7.7
		c0,0.3-0.1,0.6-0.2,0.7c-0.2,0.2-0.4,0.2-0.6,0.2c-0.2,0-0.4-0.1-0.6-0.3C125.9,554.7,125.8,554.4,125.8,554.1z M122.4,551.6
		c0,0.5,0.1,0.9,0.2,1.2c0.1,0.3,0.3,0.6,0.6,0.7c0.3,0.2,0.5,0.3,0.8,0.3s0.6-0.1,0.8-0.2c0.3-0.2,0.5-0.4,0.6-0.7
		c0.2-0.3,0.2-0.7,0.2-1.2s-0.1-0.9-0.2-1.2c-0.2-0.3-0.4-0.6-0.6-0.8c-0.3-0.2-0.5-0.3-0.8-0.3s-0.6,0.1-0.9,0.3
		c-0.3,0.2-0.4,0.4-0.6,0.8C122.4,550.7,122.4,551.1,122.4,551.6z M132.9,546.4v2.7c0.3-0.3,0.7-0.6,1-0.8s0.8-0.3,1.3-0.3
		c0.6,0,1.1,0.1,1.5,0.4c0.4,0.3,0.8,0.7,1,1.2s0.4,1.1,0.4,1.9c0,0.5-0.1,1-0.2,1.4c-0.1,0.4-0.3,0.8-0.6,1.1s-0.6,0.6-0.9,0.7
		c-0.4,0.2-0.8,0.3-1.2,0.3c-0.3,0-0.5,0-0.8-0.1c-0.2-0.1-0.4-0.1-0.6-0.3c-0.2-0.1-0.3-0.2-0.4-0.3c-0.1-0.1-0.3-0.3-0.5-0.5v0.2
		c0,0.3-0.1,0.6-0.2,0.7c-0.2,0.2-0.4,0.3-0.6,0.3c-0.2,0-0.4-0.1-0.6-0.3c-0.1-0.2-0.2-0.4-0.2-0.7v-7.6c0-0.4,0.1-0.6,0.2-0.8
		c0.1-0.2,0.3-0.3,0.6-0.3s0.5,0.1,0.6,0.3C132.8,545.9,132.9,546.1,132.9,546.4z M133,551.6c0,0.7,0.2,1.2,0.5,1.6
		c0.3,0.4,0.7,0.6,1.2,0.6c0.4,0,0.8-0.2,1.1-0.6c0.3-0.4,0.5-0.9,0.5-1.6c0-0.5-0.1-0.9-0.2-1.2c-0.1-0.3-0.3-0.6-0.6-0.8
		c-0.2-0.2-0.5-0.3-0.8-0.3s-0.6,0.1-0.9,0.3c-0.3,0.2-0.5,0.4-0.6,0.8C133,550.7,133,551.1,133,551.6z M140.3,555.3l0.2-0.4
		l-2.1-5.4c-0.1-0.3-0.2-0.5-0.2-0.7c0-0.1,0-0.3,0.1-0.4c0.1-0.1,0.2-0.2,0.3-0.3s0.3-0.1,0.4-0.1c0.3,0,0.4,0.1,0.6,0.2
		c0.1,0.2,0.2,0.4,0.3,0.7l1.5,4.3l1.4-4c0.1-0.3,0.2-0.6,0.3-0.8s0.2-0.3,0.3-0.4c0.1-0.1,0.2-0.1,0.4-0.1c0.1,0,0.3,0,0.4,0.1
		c0.1,0.1,0.2,0.2,0.3,0.3s0.1,0.2,0.1,0.4c0,0.1,0,0.2-0.1,0.3c0,0.1-0.1,0.3-0.1,0.5l-2.3,5.9c-0.2,0.5-0.4,0.9-0.6,1.2
		c-0.2,0.3-0.4,0.5-0.7,0.7s-0.7,0.2-1.2,0.2s-0.9-0.1-1.1-0.2c-0.3-0.1-0.4-0.3-0.4-0.6c0-0.2,0.1-0.4,0.2-0.5
		c0.1-0.1,0.3-0.2,0.5-0.2c0.1,0,0.2,0,0.3,0s0.2,0,0.3,0c0.2,0,0.4,0,0.5-0.1s0.2-0.2,0.3-0.3C140.1,555.8,140.2,555.6,140.3,555.3
		z M165.5,548.2c-0.6,0-0.9,0.2-0.9,0.6c0,0.2,0.1,0.3,0.2,0.5c0.1,0.1,0.3,0.2,0.6,0.2h0.5v4.6c0,0.3,0.1,0.6,0.2,0.8
		c0.2,0.2,0.4,0.3,0.6,0.3c0.3,0,0.5-0.1,0.6-0.3c0.2-0.2,0.2-0.4,0.2-0.8v-4.6h0.4c0.3,0,0.6,0,0.7-0.1c0.2-0.1,0.3-0.3,0.3-0.5
		c0-0.4-0.3-0.6-1-0.6h-0.4v-0.4c0-0.3,0-0.6,0.1-0.8s0.3-0.3,0.6-0.3c0.1,0,0.3,0,0.4,0c0.2,0,0.3,0,0.4,0s0.3-0.1,0.4-0.2
		c0.1-0.1,0.2-0.3,0.2-0.4c0-0.5-0.5-0.7-1.5-0.7c-0.6,0-1,0.1-1.4,0.2c-0.3,0.1-0.6,0.4-0.7,0.7s-0.2,0.8-0.2,1.3v0.5H165.5
		 M171.2,552.6c0-0.5,0-1,0-1.3c0-0.4,0.1-0.7,0.2-0.9c0.1-0.3,0.2-0.5,0.4-0.6c0.2-0.1,0.4-0.2,0.6-0.2s0.4,0,0.6,0.1
		s0.4,0.1,0.5,0.1c0.2,0,0.3-0.1,0.5-0.2c0.1-0.1,0.2-0.3,0.2-0.5c0-0.3-0.2-0.5-0.5-0.7s-0.7-0.3-1.1-0.3s-0.7,0.1-0.9,0.3
		c-0.2,0.2-0.4,0.5-0.6,0.8c0-0.4-0.1-0.6-0.2-0.8s-0.3-0.3-0.6-0.3c-0.6,0-0.8,0.4-0.8,1.2v4.8c0,0.3,0.1,0.6,0.2,0.8
		c0.2,0.2,0.4,0.3,0.6,0.3c0.3,0,0.5-0.1,0.6-0.3c0.2-0.2,0.3-0.4,0.3-0.8L171.2,552.6 M179.2,552h-3.4c0,0.4,0.1,0.7,0.2,1
		c0.2,0.3,0.4,0.5,0.6,0.7c0.3,0.2,0.5,0.2,0.9,0.2c0.2,0,0.4,0,0.6-0.1c0.2,0,0.3-0.1,0.5-0.2c0.2-0.1,0.3-0.2,0.4-0.3
		s0.3-0.3,0.5-0.5c0.1-0.1,0.2-0.1,0.4-0.1c0.2,0,0.3,0,0.4,0.1s0.2,0.2,0.2,0.4s-0.1,0.3-0.2,0.6c-0.1,0.2-0.3,0.4-0.6,0.6
		c-0.3,0.2-0.6,0.4-0.9,0.5c-0.4,0.1-0.8,0.2-1.3,0.2c-1.1,0-2-0.3-2.6-1c-0.6-0.6-0.9-1.5-0.9-2.6c0-0.5,0.1-1,0.2-1.4
		c0.2-0.4,0.4-0.8,0.7-1.1c0.3-0.3,0.7-0.6,1.1-0.7c0.4-0.2,0.9-0.3,1.4-0.3c0.7,0,1.3,0.1,1.7,0.4c0.5,0.3,0.9,0.7,1.1,1.1
		c0.2,0.5,0.4,0.9,0.4,1.4c0,0.4-0.1,0.7-0.4,0.8C180,551.9,179.7,552,179.2,552 M175.8,551h3.2c0-0.6-0.2-1-0.5-1.3
		s-0.6-0.4-1.1-0.4c-0.4,0-0.8,0.1-1.1,0.4C176,550,175.9,550.4,175.8,551 M186.4,552H183c0,0.4,0.1,0.7,0.2,1
		c0.2,0.3,0.4,0.5,0.6,0.7c0.3,0.2,0.5,0.2,0.9,0.2c0.2,0,0.4,0,0.6-0.1c0.2,0,0.3-0.1,0.5-0.2c0.2-0.1,0.3-0.2,0.4-0.3
		s0.3-0.3,0.5-0.5c0.1-0.1,0.2-0.1,0.4-0.1c0.2,0,0.3,0,0.4,0.1s0.2,0.2,0.2,0.4s-0.1,0.3-0.2,0.6c-0.1,0.2-0.3,0.4-0.6,0.6
		c-0.2,0.2-0.6,0.4-0.9,0.5c-0.4,0.1-0.8,0.2-1.3,0.2c-1.1,0-2-0.3-2.6-1c-0.6-0.6-0.9-1.5-0.9-2.6c0-0.5,0.1-1,0.2-1.4
		c0.2-0.4,0.4-0.8,0.7-1.1c0.3-0.3,0.7-0.6,1.1-0.7c0.4-0.2,0.9-0.3,1.4-0.3c0.7,0,1.3,0.1,1.8,0.4c0.5,0.3,0.8,0.7,1.1,1.1
		c0.2,0.5,0.4,0.9,0.4,1.4c0,0.4-0.1,0.7-0.4,0.8C187.3,551.9,186.9,552,186.4,552 M183,551h3.2c0-0.6-0.2-1-0.5-1.3
		s-0.6-0.4-1.1-0.4c-0.4,0-0.8,0.1-1.1,0.4C183.3,550,183.1,550.4,183,551 M190.3,549v0.2c0.3-0.4,0.7-0.7,1-0.9s0.7-0.3,1.2-0.3
		s1,0.1,1.5,0.4c0.5,0.3,0.8,0.7,1.1,1.2c0.3,0.5,0.4,1.2,0.4,1.9c0,0.5-0.1,1-0.2,1.5c-0.2,0.4-0.4,0.8-0.6,1.1
		c-0.3,0.3-0.6,0.5-0.9,0.7c-0.4,0.2-0.7,0.2-1.2,0.2s-0.9-0.1-1.3-0.3c-0.3-0.2-0.7-0.5-1-0.9v2.6c0,0.8-0.3,1.1-0.8,1.1
		c-0.3,0-0.5-0.1-0.7-0.3c-0.1-0.2-0.2-0.5-0.2-0.9v-7.5c0-0.3,0.1-0.6,0.2-0.7c0.1-0.2,0.3-0.2,0.6-0.2c0.2,0,0.4,0.1,0.6,0.3
		C190.2,548.5,190.3,548.7,190.3,549 M193.7,551.5c0-0.5-0.1-0.9-0.2-1.2s-0.3-0.6-0.6-0.8s-0.5-0.3-0.8-0.3c-0.5,0-0.9,0.2-1.2,0.6
		c-0.3,0.4-0.5,0.9-0.5,1.7c0,0.7,0.2,1.2,0.5,1.6c0.3,0.4,0.7,0.6,1.2,0.6c0.3,0,0.6-0.1,0.8-0.2c0.2-0.2,0.4-0.4,0.6-0.8
		C193.6,552.4,193.7,552,193.7,551.5 M197.2,547.2c-0.2,0-0.4-0.1-0.6-0.2c-0.2-0.1-0.3-0.4-0.3-0.6c0-0.2,0.1-0.4,0.3-0.6
		c0.2-0.2,0.4-0.2,0.6-0.2s0.4,0.1,0.6,0.2c0.2,0.1,0.3,0.4,0.3,0.6c0,0.3-0.1,0.5-0.3,0.6C197.6,547.2,197.4,547.2,197.2,547.2
		 M198,549v5c0,0.3-0.1,0.6-0.2,0.8c-0.2,0.2-0.4,0.3-0.6,0.3c-0.3,0-0.5-0.1-0.6-0.3c-0.2-0.2-0.2-0.4-0.2-0.8v-5
		c0-0.3,0.1-0.6,0.2-0.8c0.2-0.2,0.4-0.3,0.6-0.3c0.3,0,0.5,0.1,0.6,0.3C197.9,548.5,198,548.7,198,549 M203.6,554.3
		c0.2,0.3,0.4,0.5,0.5,0.6s0.3,0.2,0.5,0.2s0.4-0.1,0.6-0.2c0.2-0.2,0.2-0.4,0.2-0.7c0-0.1,0-0.2-0.1-0.3s-0.2-0.3-0.3-0.5l-1.8-2.8
		l0.9-0.8c0.5-0.4,0.7-0.8,0.7-1s-0.1-0.4-0.2-0.5s-0.3-0.2-0.5-0.2s-0.3,0-0.5,0.1c-0.1,0.1-0.3,0.3-0.6,0.5l-2,2.1v-4.2
		c0-0.4-0.1-0.6-0.2-0.8c-0.2-0.2-0.4-0.3-0.6-0.3c-0.3,0-0.5,0.1-0.6,0.3s-0.2,0.5-0.2,0.9v7.4c0,0.3,0.1,0.6,0.2,0.8
		c0.2,0.2,0.4,0.3,0.6,0.3s0.4-0.1,0.6-0.3s0.3-0.4,0.3-0.8v-1.4l0.9-0.9L203.6,554.3 M207.4,555.1c0.3,0,0.5-0.1,0.7-0.3
		s0.3-0.4,0.3-0.7s-0.1-0.5-0.3-0.7c-0.2-0.2-0.4-0.3-0.7-0.3c-0.3,0-0.5,0.1-0.7,0.3s-0.3,0.4-0.3,0.7s0.1,0.5,0.3,0.7
		C206.9,555,207.2,555.1,207.4,555.1 M216.1,553c0-0.2-0.1-0.4-0.2-0.5c-0.1-0.2-0.3-0.2-0.5-0.2s-0.3,0.1-0.5,0.2
		c-0.1,0.1-0.2,0.3-0.3,0.5c-0.2,0.3-0.4,0.6-0.7,0.7c-0.2,0.2-0.5,0.2-0.9,0.2c-0.3,0-0.5,0-0.7-0.2c-0.2-0.1-0.4-0.2-0.6-0.4
		s-0.3-0.4-0.3-0.7c-0.1-0.3-0.1-0.6-0.1-0.9c0-0.7,0.2-1.2,0.5-1.6c0.3-0.4,0.7-0.6,1.2-0.6c0.4,0,0.7,0.1,0.9,0.2
		c0.2,0.2,0.5,0.4,0.7,0.7c0.1,0.2,0.2,0.3,0.3,0.4c0.1,0.1,0.2,0.1,0.4,0.1c0.2,0,0.4-0.1,0.6-0.2c0.2-0.1,0.2-0.3,0.2-0.5
		s-0.1-0.4-0.2-0.7c-0.1-0.2-0.3-0.5-0.6-0.7c-0.3-0.2-0.6-0.4-1-0.5s-0.8-0.2-1.2-0.2c-0.7,0-1.4,0.1-1.9,0.4
		c-0.5,0.3-0.9,0.7-1.2,1.3c-0.3,0.5-0.4,1.2-0.4,1.9c0,1.1,0.3,1.9,0.9,2.5s1.4,0.9,2.5,0.9c0.5,0,1-0.1,1.4-0.2
		c0.4-0.1,0.7-0.3,1-0.5s0.5-0.5,0.6-0.7C216,553.4,216.1,553.2,216.1,553 M223.6,551.6c0,0.5-0.1,1-0.2,1.4
		c-0.2,0.4-0.4,0.8-0.7,1.1c-0.3,0.3-0.7,0.6-1.1,0.7c-0.4,0.2-0.9,0.3-1.4,0.3s-1-0.1-1.4-0.3s-0.8-0.4-1.1-0.7
		c-0.3-0.3-0.5-0.7-0.7-1.1c-0.2-0.4-0.2-0.9-0.2-1.4s0.1-1,0.2-1.4c0.2-0.4,0.4-0.8,0.7-1.1c0.3-0.3,0.7-0.5,1.1-0.7
		s0.9-0.3,1.4-0.3s1,0.1,1.4,0.3s0.8,0.4,1.1,0.7c0.3,0.3,0.5,0.7,0.7,1.1C223.5,550.6,223.6,551.1,223.6,551.6 M221.8,551.6
		c0-0.7-0.2-1.3-0.5-1.7s-0.7-0.6-1.3-0.6c-0.3,0-0.6,0.1-0.9,0.3s-0.5,0.4-0.6,0.8c-0.1,0.3-0.2,0.7-0.2,1.2s0.1,0.9,0.2,1.2
		s0.3,0.6,0.6,0.8c0.3,0.2,0.6,0.3,0.9,0.3c0.5,0,0.9-0.2,1.3-0.6C221.7,552.8,221.8,552.3,221.8,551.6 M230.2,551.7
		c0-0.7,0.1-1.3,0.2-1.6c0.1-0.2,0.3-0.4,0.5-0.5s0.4-0.2,0.7-0.2c0.3,0,0.5,0.1,0.6,0.2c0.1,0.2,0.2,0.3,0.3,0.6c0,0.2,0,0.5,0,0.9
		v2.9c0,0.4,0.1,0.6,0.3,0.8c0.2,0.2,0.4,0.3,0.6,0.3c0.3,0,0.5-0.1,0.7-0.3s0.2-0.5,0.2-0.8v-3.4c0-0.7-0.1-1.2-0.2-1.5
		c-0.2-0.3-0.4-0.6-0.8-0.8c-0.3-0.2-0.8-0.3-1.2-0.3c-0.4,0-0.8,0.1-1.1,0.3c-0.3,0.2-0.7,0.4-0.9,0.8c-0.2-0.3-0.5-0.6-0.8-0.8
		s-0.7-0.3-1.1-0.3s-0.8,0.1-1.1,0.3c-0.3,0.2-0.7,0.4-1,0.8v-0.2c0-0.3-0.1-0.5-0.2-0.7c-0.2-0.2-0.4-0.2-0.6-0.2s-0.4,0.1-0.6,0.3
		s-0.2,0.4-0.2,0.7v5c0,0.4,0.1,0.6,0.3,0.8c0.2,0.2,0.4,0.3,0.6,0.3c0.3,0,0.5-0.1,0.6-0.3c0.2-0.2,0.2-0.5,0.2-0.8v-2.3
		c0-0.7,0.1-1.3,0.3-1.7c0.2-0.4,0.6-0.6,1.1-0.6c0.3,0,0.5,0.1,0.6,0.2c0.1,0.2,0.2,0.4,0.2,0.6c0,0.2,0,0.6,0,1v2.8
		c0,0.4,0.1,0.6,0.2,0.8c0.2,0.2,0.4,0.3,0.6,0.3c0.3,0,0.5-0.1,0.7-0.3s0.2-0.5,0.2-0.8L230.2,551.7 M149.2,551.2L149.2,551.2
		L149.2,551.2z M149.3,551.7L149.3,551.7c0-0.2-0.1-0.3-0.1-0.5C149.3,551.4,149.3,551.6,149.3,551.7z M149.9,553.3L149.9,553.3
		L149.9,553.3z M149.8,553.2L149.8,553.2L149.8,553.2z M149.5,552.3c0.1,0.3,0.2,0.5,0.3,0.8C149.7,552.9,149.6,552.6,149.5,552.3
		L149.5,552.3z M156,544.5c0.3,0,0.6,0,0.9,0.1l0.1-0.5c0,0-0.8-0.2-1.8-0.2l-0.1-0.3c0.3-0.1,0.6-0.4,0.6-0.7
		c0-0.4-0.3-0.7-0.7-0.7s-0.7,0.3-0.7,0.7c0,0.3,0.2,0.6,0.6,0.7l0.1,0.3c-1.1,0.2-2,0.6-2,0.6l0.2,0.5c0.7-0.2,1.2-0.4,1.8-0.4
		C155.3,544.5,155.6,544.5,156,544.5z M149.9,547.1L149.9,547.1l0.1-0.1l-0.2-0.2l-0.3-0.2c0,0-0.5,0.5-0.9,1.4c0,0,0-0.1-0.1-0.1
		c-0.1-0.1-0.3-0.2-0.5-0.2l0,0c-0.1,0-0.2,0-0.3-0.1c0.1-0.1,0.1-0.2,0.1-0.3c0-0.2-0.2-0.4-0.4-0.4s-0.4,0.2-0.4,0.4
		s0.2,0.4,0.4,0.4h0.1c0.1,0.1,0.3,0.2,0.5,0.2c0.1,0,0.2,0,0.3,0.1s0.1,0.2,0.1,0.3l0,0c-0.3,0.8-0.2,1.8-0.2,1.8h0.7
		c0-0.4,0.1-1,0.2-1.5C149.4,547.7,149.9,547.1,149.9,547.1z M162.1,545.1c-0.2,0-0.4,0.2-0.4,0.4v0.1c-0.1,0.1-0.2,0.3-0.2,0.5
		c0,0.1,0,0.2-0.1,0.3s-0.1,0.1-0.2,0.1c-0.5-0.7-1.2-1.2-1.2-1.2l-0.5,0.5c0.4,0.3,0.8,0.8,1.2,1.3c0.3,0.4,0.5,0.9,0.8,1.4
		l0.7-0.3c0,0-0.3-0.8-0.8-1.5c0.1,0,0.2-0.1,0.2-0.1c0.1-0.1,0.2-0.3,0.2-0.5c0-0.1,0-0.2,0.1-0.3c0.1,0.1,0.2,0.1,0.3,0.1
		c0.2,0,0.4-0.2,0.4-0.4S162.4,545.1,162.1,545.1z M160.4,551.3c-0.9,0.5-2.5,1.1-4.6,1.4c-0.8,0.1-1.6,0.2-2.3,0.2
		c-0.9,0-1.8-0.1-2.4-0.1c-0.7-0.1-1.3-0.2-1.6-0.3c0.1,0.3,0.2,0.5,0.3,0.8l0,0v0.1v0.1l0,0c0.2,0.4,0.4,0.7,0.7,1
		c1,1.1,2,1.2,2,1.2l0,0l0,0c0,0,0.9,0.3,2.2,0.3s2.6-0.3,3.8-0.8c0.9-0.5,1.8-1.2,2.2-1.8c0.3-0.5,0.6-1,0.7-1.5
		c0.1-0.3,0.1-0.7,0.1-1.2C161.3,550.7,160.9,551,160.4,551.3z M150.2,547.3c0,0-0.4,0.6-0.8,1.5c-0.2,0.7-0.2,1.6-0.2,1.7l0,0
		c0,0.2,0,0.5,0,0.7l0,0v0.1c0,0.2,0,0.3,0.1,0.5c0.5,0.1,3.3,0.8,6.4,0.3c2-0.3,3.5-0.9,4.4-1.3c0.8-0.4,1.2-0.7,1.4-0.8
		c-0.2-0.7-0.7-1.8-1.2-2.4c-1.3-1.9-2.8-2.4-3.5-2.5c-0.3,0-0.5-0.1-0.8-0.1s-0.7,0-1.2,0.1s-1.1,0.2-1.7,0.4
		c-0.9,0.3-1.7,0.8-2.4,1.4l0,0C150.6,546.8,150.4,547,150.2,547.3z M158.4,546.9c0.6,0,1.2,0.5,1.2,1.2c0,0.6-0.5,1.2-1.2,1.2
		c-0.6,0-1.2-0.5-1.2-1.2C157.2,547.4,157.8,546.9,158.4,546.9z M152.9,546.8c1,0,1.9,0.8,1.9,1.9c0,1-0.8,1.9-1.9,1.9
		c-1,0-1.9-0.8-1.9-1.9C151,547.7,151.8,546.8,152.9,546.8z"/>
</g>
<g id="OBJECTS">
	<g>
		<g>
			<g class="st3">
				<g>
					<defs>
						<path id="SVGID_1_" d="M117.1,528.1c-1.4,0.6-2.8,1.2-4.3,1.8c-0.1,0.1-0.2,0.1-0.3,0.1L117.1,528.1
							C117,528.1,117,528.1,117.1,528.1z"/>
					</defs>
					<clipPath id="SVGID_2_">
						<use xlink:href="#SVGID_1_"  style="overflow:visible;"/>
					</clipPath>
					<g class="st4">
						<path class="st5" d="M117.1,528.1l-4.3,1.8c-0.1,0.1-0.2,0.1-0.3,0.1L117.1,528.1C117,528.1,117,528.1,117.1,528.1"/>
					</g>
				</g>
			</g>
			<path class="st6" d="M67.4,453.3c0.1-0.2,0.2-0.4,0.4-0.6c0.1-0.1,0.1-0.1,0.2-0.2c0.1-0.1,0.2-0.3,0.3-0.4
				c0.1-0.1,0.2-0.1,0.2-0.2c0.1-0.1,0.2-0.2,0.3-0.2c0.1-0.1,0.2-0.1,0.3-0.2c0.1-0.1,0.2-0.1,0.3-0.2l-4.3,1.8
				c-0.5,0.2-1,1-1.1,1.8l-0.6,7c-0.1,0.9-0.3,1.7-0.5,2.5c0,0.1,0,0.1-0.1,0.1c-0.9,2.5-2.5,4.7-4.4,5.5c1.4-0.6,2.9-1.2,4.3-1.8
				c1.5-0.6,2.8-2.8,3-4.9l0.6-7C66.4,455.3,66.8,454.2,67.4,453.3C67.4,453.3,67.4,453.3,67.4,453.3z"/>
			<path class="st7" d="M93.5,444.8c-0.1,0-0.1,0-0.2-0.1c-0.1,0-0.2,0-0.3,0l0,0l0,0c-0.1,0-0.2,0-0.3,0.1c-0.1,0-0.1,0.1-0.2,0.1
				l-22.7,6.5c-0.1,0-0.1,0.1-0.2,0.1c-0.1,0.1-0.2,0.1-0.4,0.2c0,0-0.1,0-0.1,0.1c-0.1,0.1-0.2,0.1-0.3,0.2
				c-0.1,0.1-0.1,0.1-0.2,0.1c-0.1,0.1-0.1,0.1-0.2,0.2c-0.1,0.1-0.2,0.2-0.3,0.3c-0.1,0.1-0.1,0.1-0.2,0.2l-0.1,0.1
				c-0.1,0.2-0.2,0.3-0.3,0.5c0,0.1-0.1,0.1-0.1,0.1c-0.1,0.1-0.1,0.2-0.2,0.3c-0.1,0.1-0.1,0.1-0.1,0.2s-0.1,0.2-0.1,0.3
				c0,0.1-0.1,0.1-0.1,0.2c-0.1,0.1-0.1,0.3-0.2,0.5c0,0,0,0.1-0.1,0.1c0,0,0,0,0,0.1c-0.1,0.2-0.1,0.3-0.2,0.5c0,0.1,0,0.1-0.1,0.2
				c0,0.1,0,0.1-0.1,0.1c0,0.1,0,0.1-0.1,0.2c-0.1,0.2-0.1,0.3-0.1,0.5c0,0.1,0,0.1,0,0.2l-0.6,7c0,0.3-0.1,0.5-0.1,0.8
				c0,0.1,0,0.1-0.1,0.1c-0.1,0.2-0.1,0.5-0.2,0.7c0,0.1,0,0.1-0.1,0.1c-0.1,0.2-0.2,0.4-0.2,0.6c-0.1,0.1-0.1,0.2-0.1,0.3
				c-0.1,0.2-0.2,0.3-0.3,0.5c0,0.1-0.1,0.1-0.1,0.1c-0.1,0.2-0.3,0.4-0.4,0.5c-0.1,0.1-0.1,0.1-0.2,0.2c-0.1,0.1-0.2,0.2-0.3,0.3
				c-0.1,0.1-0.1,0.1-0.2,0.2c-0.1,0.1-0.3,0.2-0.4,0.3c0,0-0.1,0-0.1,0.1c-0.2,0.1-0.4,0.2-0.6,0.2l-15.3,4.4
				c-0.2,0.1-0.4,0.1-0.6,0.1l0,0c-0.2,0-0.4,0-0.6-0.1l19.7,4.9c0.1,0,0.1,0.1,0.2,0.1c0.1,0,0.2,0,0.3,0l0,0l0,0
				c0.1,0,0.2,0,0.3-0.1c0.1,0,0.2-0.1,0.2-0.1l15.3-4.4c0.1,0,0.1-0.1,0.2-0.1c0.1-0.1,0.2-0.1,0.4-0.2c0,0,0.1,0,0.1-0.1
				c0.1-0.1,0.2-0.1,0.3-0.2c0.1-0.1,0.1-0.1,0.2-0.1c0.1-0.1,0.1-0.1,0.2-0.2c0.1-0.1,0.2-0.2,0.3-0.3c0.1-0.1,0.1-0.1,0.2-0.2
				l0.1-0.1c0.1-0.2,0.2-0.3,0.3-0.5c0-0.1,0.1-0.1,0.1-0.1c0.1-0.1,0.1-0.2,0.2-0.3c0.1-0.1,0.1-0.1,0.1-0.2
				c0.1-0.1,0.1-0.2,0.1-0.3c0-0.1,0.1-0.1,0.1-0.2c0.1-0.1,0.1-0.3,0.2-0.5c0,0,0-0.1,0.1-0.1c0,0,0,0,0-0.1
				c0.1-0.2,0.1-0.3,0.2-0.5c0-0.1,0.1-0.1,0.1-0.2c0-0.1,0-0.1,0.1-0.1c0-0.1,0-0.1,0.1-0.2c0.1-0.2,0.1-0.3,0.1-0.5
				c0-0.1,0-0.1,0-0.2l0.6-7c0-0.3,0.1-0.5,0.1-0.8c0-0.1,0-0.1,0.1-0.2c0.1-0.2,0.1-0.5,0.2-0.7c0-0.1,0-0.1,0.1-0.1
				c0.1-0.2,0.2-0.4,0.2-0.6c0.1-0.1,0.1-0.2,0.1-0.3c0.1-0.1,0.1-0.2,0.2-0.3c0.1-0.2,0.3-0.4,0.4-0.6c0.1-0.1,0.1-0.1,0.2-0.2
				c0.1-0.1,0.1-0.1,0.2-0.2c0.1-0.1,0.2-0.2,0.3-0.3c0.1-0.1,0.1-0.1,0.2-0.2c0.1-0.1,0.3-0.2,0.4-0.3c0,0,0.1,0,0.1-0.1
				c0.2-0.1,0.4-0.2,0.6-0.2l22.7-6.5c0.2-0.1,0.3-0.1,0.5-0.1l0,0c0.2,0,0.3,0,0.5,0.1C106.5,448.1,100,446.4,93.5,444.8z"/>
			<polygon class="st6" points="80.3,458.7 49.6,465.5 43.6,463 74.2,456.1 			"/>
			<polygon class="st7" points="78.1,456.4 47.4,463.3 41.3,460.7 72,453.9 			"/>
			<path class="st8" d="M116.7,453.9c0.1,0,0.1,0,0.2,0l0,0c0.1,0,0.1,0.1,0.1,0.1l0,0c0.1,0.1,0.1,0.1,0.1,0.1l0,0l-0.3-0.3
				c-0.9-1.1-1.7-2.2-2.6-3.3l0,0l-0.1-0.1c-0.1-0.1-0.1-0.1-0.2-0.2l0,0l0,0c-0.1-0.1-0.1-0.1-0.1-0.1s-0.1,0-0.1-0.1
				c0,0-0.1,0-0.1-0.1c0,0-0.1,0-0.1-0.1c-0.1-0.1-0.1-0.1-0.2-0.1l0,0l0,0c-0.1,0-0.1-0.1-0.2-0.1h-0.1h-0.1h-0.1l0,0
				c-0.1,0-0.1-0.1-0.2-0.1l0,0l0,0c-0.1,0-0.1,0-0.2,0h-0.1h-0.1h-0.1c-0.1,0-0.1,0-0.2,0c0,0,0,0-0.1,0l0,0
				c-0.1,0-0.2,0.1-0.3,0.1l0,0l-22.9,6.5c-0.1,0.1-0.2,0.1-0.3,0.1c-0.1,0-0.1,0.1-0.2,0.1c-0.1,0.1-0.2,0.1-0.2,0.1
				c-0.1,0.1-0.1,0.1-0.2,0.1c-0.1,0.1-0.1,0.1-0.2,0.2c-0.1,0.1-0.1,0.1-0.2,0.2c-0.1,0.1-0.2,0.2-0.3,0.3
				c-0.1,0.1-0.1,0.1-0.2,0.2l-0.1,0.1l0,0l0,0l0,0c-0.1,0.1-0.1,0.2-0.2,0.2c-0.1,0.1-0.2,0.3-0.3,0.4c0,0.1-0.1,0.1-0.1,0.1
				c-0.1,0.2-0.2,0.3-0.3,0.5l0,0l0,0c-0.1,0.1-0.1,0.3-0.2,0.4c-0.1,0.1-0.1,0.2-0.1,0.3c0,0,0,0,0,0.1l0,0
				c-0.1,0.1-0.1,0.2-0.1,0.3c-0.1,0.1-0.1,0.2-0.1,0.3c0,0.1,0,0.1,0,0.1v0.1c0,0.1,0,0.1-0.1,0.2c0,0.1-0.1,0.2-0.1,0.3
				c0,0.1,0,0.2-0.1,0.3c0,0.1,0,0.1,0,0.1l-0.6,7c0,0.3-0.1,0.6-0.1,0.8v0.1c-0.1,0.6-0.3,1.1-0.6,1.6c0,0,0,0,0,0.1
				c-0.1,0.2-0.2,0.4-0.3,0.6c-0.1,0.1-0.2,0.2-0.3,0.3c-0.1,0.1-0.2,0.2-0.2,0.3c-0.1,0.1-0.1,0.1-0.2,0.2
				c-0.1,0.1-0.2,0.2-0.3,0.3c-0.1,0.1-0.1,0.1-0.2,0.2c-0.1,0.1-0.2,0.2-0.3,0.2c-0.1,0.1-0.2,0.1-0.3,0.2
				c-0.2,0.1-0.3,0.2-0.5,0.2l-15.3,4.4c-0.1,0.1-0.2,0.1-0.3,0.1h-0.1c-0.1,0-0.2,0-0.2,0h-0.1c-0.1,0-0.2,0-0.3-0.1l0,0
				c-0.1,0-0.2-0.1-0.3-0.1h-0.1c-0.1-0.1-0.2-0.1-0.3-0.1c0,0-0.1,0-0.1-0.1c-0.1-0.1-0.2-0.1-0.2-0.2l-0.1-0.1
				c-0.1-0.1-0.2-0.1-0.2-0.2l0,0c0,0,0,0,0-0.1c-0.1-0.1-0.2-0.2-0.2-0.2l2.9,3.6c0.1,0.1,0.1,0.1,0.1,0.1c0.1,0.1,0.2,0.2,0.3,0.3
				c0.1,0.1,0.2,0.2,0.3,0.3c0.1,0,0.1,0.1,0.1,0.1c0.1,0,0.1,0.1,0.1,0.1c0.1,0.1,0.1,0.1,0.1,0.1s0.2,0.1,0.3,0.2
				c0,0,0.1,0,0.1,0.1l0,0c0.1,0.1,0.2,0.1,0.3,0.2c0.1,0,0.1,0,0.1,0.1c0.1,0,0.1,0,0.1,0.1c0.1,0,0.1,0.1,0.2,0.1
				c0.1,0.1,0.2,0.1,0.3,0.1h0.1l0,0c0.1,0,0.2,0.1,0.4,0.1c0.1,0,0.1,0,0.1,0s0.1,0,0.1,0c0.1,0,0.1,0,0.2,0s0.2,0,0.2,0
				c0.1,0,0.1,0,0.1,0h0.1c0.2,0,0.3-0.1,0.5-0.1l0,0l15.3-4.4c0.2-0.1,0.3-0.1,0.5-0.2l0,0c0.1-0.1,0.2-0.1,0.2-0.1
				c0.1-0.1,0.1-0.1,0.2-0.1c0.1-0.1,0.2-0.1,0.3-0.2c0.3-0.2,0.6-0.5,0.9-0.7c0.1-0.1,0.1-0.1,0.1-0.1c0.2-0.2,0.5-0.5,0.6-0.7
				l0.1-0.1c0.1-0.1,0.1-0.1,0.1-0.1c0.1-0.1,0.2-0.2,0.2-0.3c0.1-0.1,0.1-0.2,0.2-0.2c0.1-0.1,0.1-0.2,0.2-0.3
				c0.1-0.1,0.1-0.1,0.1-0.2c0-0.1,0.1-0.1,0.1-0.1c0.1-0.2,0.2-0.4,0.3-0.6c0,0,0-0.1,0.1-0.1l0,0c0.1-0.2,0.2-0.5,0.3-0.7l0,0
				c0.1-0.2,0.2-0.4,0.2-0.6c0-0.1,0.1-0.1,0.1-0.2c0.1-0.2,0.1-0.3,0.2-0.5v-0.1c0-0.1,0.1-0.1,0.1-0.2s0.1-0.2,0.1-0.3
				c0-0.1,0-0.1,0.1-0.2c0-0.1,0.1-0.1,0.1-0.2c0-0.1,0-0.1,0.1-0.2c0-0.1,0.1-0.2,0.1-0.3c0-0.1,0-0.1,0-0.1s0,0,0-0.1
				c0-0.2,0.1-0.3,0.1-0.5c0-0.1,0-0.1,0-0.2l0.6-7c0-0.1,0-0.2,0.1-0.3l0,0c0.1-0.3,0.2-0.6,0.3-0.8c0.1-0.1,0.1-0.1,0.1-0.2
				c0-0.1,0.1-0.1,0.1-0.1c0.1-0.1,0.2-0.2,0.3-0.3l0.1-0.1c0.1,0,0.1-0.1,0.1-0.1s0.1-0.1,0.2-0.1l22.7-6.5
				C116.6,453.9,116.7,453.9,116.7,453.9L116.7,453.9z"/>
			<g>
				<polygon class="st9" points="117,528.1 112.5,530 36.9,551.7 41.4,549.8 				"/>
			</g>
			<path class="st6" d="M16.6,466.5c-1.4,0.6-2.8,1.2-4.3,1.8c-0.1,0.1-0.2,0.1-0.2,0.2l0,0c-0.1,0.1-0.1,0.2-0.2,0.2
				c0,0,0,0.1-0.1,0.1c-0.1,0.1-0.1,0.2-0.1,0.3c0,0.1-0.1,0.1-0.1,0.1c-0.1,0.1-0.1,0.3-0.1,0.4l0.4,72c0,0.3,0.1,0.5,0.2,0.6
				c1,1.2,1.9,2.4,2.9,3.6c-0.5-0.6-0.7-1.5-0.7-2.5l-0.4-72C13.9,469.3,15.1,467.2,16.6,466.5z"/>
			<path class="st7" d="M59.8,464.8c0.2,0,0.4,0,0.6,0.1l-19.7-4.9c-0.1,0-0.1-0.1-0.2-0.1s-0.2,0-0.3,0c-0.1,0-0.2,0-0.3,0.1
				c-0.1,0-0.2,0.1-0.2,0.1l-22.7,6.5c-0.1,0-0.1,0.1-0.2,0.1c-0.1,0.1-0.2,0.1-0.3,0.2c0,0-0.1,0-0.1,0.1c-0.1,0.1-0.2,0.1-0.2,0.1
				c-0.1,0.1-0.1,0.1-0.2,0.2c-0.1,0.1-0.1,0.1-0.1,0.1c-0.2,0.1-0.3,0.3-0.4,0.5l0,0c-0.2,0.2-0.3,0.5-0.5,0.7c0,0,0,0,0,0.1
				c-0.1,0.2-0.2,0.3-0.3,0.5v0.1c0,0.1-0.1,0.1-0.1,0.1c-0.1,0.1-0.1,0.2-0.1,0.3c-0.1,0.1-0.1,0.2-0.1,0.3v0.1l0,0
				c-0.1,0.2-0.1,0.3-0.1,0.5c0,0.1,0,0.2-0.1,0.2c0,0.1,0,0.1,0,0.1c0,0.1,0,0.1,0,0.1c0,0.2-0.1,0.3-0.1,0.5c0,0.1,0,0.1,0,0.2
				l0.4,72c0,0.2,0,0.3,0,0.4c0,0.1,0,0.1,0,0.1c0,0.1,0,0.2,0.1,0.2c0,0.1,0.1,0.2,0.1,0.3c0,0.1,0.1,0.2,0.1,0.2
				c0,0.1,0.1,0.2,0.1,0.3c0,0.1,0.1,0.1,0.1,0.2c0.1,0.1,0.1,0.2,0.1,0.2c0.1,0.1,0.1,0.1,0.1,0.2s0.1,0.2,0.2,0.2
				c0.1,0.1,0.1,0.1,0.1,0.2c0.1,0.1,0.1,0.1,0.2,0.2s0.1,0.1,0.1,0.1c0.1,0.1,0.2,0.1,0.2,0.2c0.1,0,0.1,0.1,0.1,0.1
				c0.1,0.1,0.2,0.1,0.4,0.2c6.6,1.7,13.1,3.3,19.7,4.9c-0.1-0.1-0.3-0.1-0.4-0.2c-0.1,0-0.1-0.1-0.1-0.1c-0.1-0.1-0.2-0.1-0.2-0.2
				c-0.1-0.1-0.1-0.1-0.1-0.1c-0.1-0.1-0.1-0.1-0.2-0.2c-0.1-0.1-0.1-0.1-0.1-0.2c-0.1-0.1-0.1-0.1-0.2-0.2
				c-0.1-0.1-0.1-0.1-0.1-0.2c-0.1-0.1-0.1-0.2-0.1-0.2c-0.1-0.1-0.1-0.2-0.1-0.2c-0.1-0.1-0.1-0.2-0.1-0.3c0-0.1-0.1-0.2-0.1-0.2
				c0-0.1-0.1-0.2-0.1-0.3s0-0.2-0.1-0.3c0-0.2-0.1-0.3-0.1-0.5l-0.4-72c0-0.3,0-0.5,0.1-0.8c0-0.1,0-0.1,0-0.1
				c0.1-0.2,0.1-0.5,0.2-0.7v-0.1c0.1-0.2,0.1-0.5,0.2-0.6c0-0.1,0.1-0.1,0.1-0.1c0.1-0.2,0.2-0.5,0.3-0.6c0.2-0.2,0.3-0.5,0.5-0.7
				c0.1-0.2,0.3-0.3,0.5-0.5c0.1-0.1,0.1-0.1,0.1-0.1c0.1-0.1,0.3-0.2,0.4-0.3c0,0,0.1,0,0.1-0.1c0.2-0.1,0.4-0.2,0.6-0.2l22.7-6.5
				C59.4,464.9,59.6,464.8,59.8,464.8L59.8,464.8z"/>
			<path class="st10" d="M117.4,454.8c0-0.6-0.3-1-0.7-0.9l-22.7,6.5c-0.5,0.2-1.1,1-1.2,1.8l-0.6,7c-0.3,3.8-2.8,7.5-5.5,8.3
				l-15.3,4.4c-2.7,0.7-5.2-1.5-5.6-5.1l-0.7-6.6c-0.1-0.7-0.6-1.3-1.2-1.1L41,475.6c-0.4,0.1-0.7,0.7-0.7,1.3l0.4,72
				c0,0.6,0.3,1,0.7,0.9l75.6-21.7c0.4-0.1,0.7-0.7,0.7-1.3L117.4,454.8z"/>
			<path class="st8" d="M40.2,476.6c0-0.1,0-0.1,0.1-0.2l0,0c0-0.1,0.1-0.1,0.1-0.2l0,0l0,0c0-0.1,0.1-0.1,0.1-0.2c0,0,0,0,0-0.1
				c0-0.1,0.1-0.1,0.1-0.1l0.1-0.1l0,0c0.1-0.1,0.1-0.1,0.2-0.2c0,0,0.1,0,0.1-0.1c0,0,0.1,0,0.1-0.1c0.1,0,0.1-0.1,0.1-0.1
				l22.7-6.5c0.1,0,0.2-0.1,0.2,0l0,0c0.1,0,0.2,0,0.2,0.1l0,0c0.1,0.1,0.2,0.1,0.2,0.1l0,0c0.1,0.1,0.1,0.1,0.2,0.2l-0.5-0.6
				c-0.1-0.1-0.1-0.1-0.1-0.1l-0.1-0.1l-0.2-0.2c-0.1-0.1-0.1-0.2-0.2-0.2l-1.3-1.6c-0.2-0.2-0.4-0.5-0.6-0.7l0,0l-0.1-0.1
				c-0.1-0.1-0.1-0.1-0.2-0.2l0,0l0,0c-0.1-0.1-0.1-0.1-0.2-0.2c0,0-0.1,0-0.1-0.1l-0.1-0.1c-0.1,0-0.1-0.1-0.1-0.1
				c-0.1-0.1-0.1-0.1-0.1-0.1s-0.1,0-0.1-0.1l0,0c-0.1-0.1-0.1-0.1-0.2-0.1c0,0,0,0-0.1,0h-0.1c-0.1,0-0.1,0-0.1-0.1
				c-0.1,0-0.1,0-0.1-0.1h-0.1l0,0c-0.1,0-0.2,0-0.2-0.1c0,0,0,0-0.1,0h-0.1c-0.1,0-0.1,0-0.1,0l0,0l0,0l0,0c-0.1,0-0.1,0-0.1,0
				h-0.1c0,0,0,0-0.1,0c-0.1,0-0.2,0.1-0.3,0.1l0,0l-22.8,6.7c-0.1,0.1-0.2,0.1-0.3,0.1c-0.1,0-0.1,0.1-0.2,0.1
				c-0.1,0.1-0.2,0.1-0.2,0.1c-0.1,0-0.1,0.1-0.1,0.1c-0.1,0.1-0.1,0.1-0.2,0.2c-0.1,0.1-0.1,0.1-0.2,0.1c-0.2,0.1-0.3,0.3-0.5,0.5
				l0,0c-0.1,0.1-0.1,0.1-0.1,0.1c-0.1,0.1-0.2,0.3-0.3,0.5c0,0,0,0,0,0.1c0,0.1-0.1,0.1-0.1,0.1c-0.1,0.1-0.1,0.2-0.2,0.3
				s-0.1,0.2-0.2,0.3l0,0c-0.1,0.1-0.1,0.2-0.1,0.3c-0.1,0.1-0.1,0.2-0.1,0.3c0,0.1,0,0.1-0.1,0.1v0.1c0,0.1,0,0.1-0.1,0.1
				c0,0.1-0.1,0.2-0.1,0.3s-0.1,0.2-0.1,0.3v0.1v0.1c0,0.1,0,0.1,0,0.2c0,0.1,0,0.2,0,0.3s0,0.2,0,0.3c0,0.1,0,0.1,0,0.1l0.4,72
				c0,0.1,0,0.1,0,0.2c0,0.1,0,0.1,0,0.2v0.1v0.1c0,0.1,0,0.2,0.1,0.3l0,0c0,0.1,0,0.1,0,0.1c0,0.1,0,0.1,0.1,0.2v0.1
				c0,0.1,0,0.1,0.1,0.2c0,0.1,0,0.1,0.1,0.1v0.1c0,0.1,0.1,0.1,0.1,0.2s0,0.1,0.1,0.1v0.1c0.1,0.1,0.1,0.2,0.1,0.3
				c0,0,0,0.1,0.1,0.1l0,0c0.1,0.1,0.2,0.3,0.3,0.4c0,0,0,0,0,0.1c0,0,0,0,0.1,0.1s0.1,0.1,0.1,0.1c0.1,0.1,0.1,0.1,0.1,0.1
				c0.1,0.1,0.1,0.1,0.1,0.1c0.1,0,0.1,0.1,0.1,0.1c0.1,0.1,0.1,0.1,0.1,0.1c0.1,0,0.1,0.1,0.1,0.1c0.1,0,0.1,0.1,0.2,0.1
				c0.1,0,0.1,0.1,0.1,0.1c0.1,0,0.1,0.1,0.2,0.1s0.1,0,0.1,0s0.1,0,0.2,0s0.1,0,0.1,0c0.1,0,0.1,0,0.2,0c0.1,0,0.1,0,0.1,0
				c0.1,0,0.2-0.1,0.3-0.1l4.5-1.9c-0.1,0-0.1,0-0.2,0c0,0,0,0-0.1,0c-0.1,0-0.1,0-0.1,0H41c-0.1,0-0.1,0-0.1-0.1c0,0-0.1,0-0.1-0.1
				l-0.1-0.1l-0.1-0.1c0,0,0,0,0-0.1s-0.1-0.1-0.1-0.2l0,0c0-0.1-0.1-0.1-0.1-0.2l0,0c0-0.1,0-0.1,0-0.2l-0.4-72
				C40.2,476.8,40.2,476.8,40.2,476.6C40.2,476.7,40.2,476.7,40.2,476.6z"/>
			<g>
				<path class="st7" d="M109,489.1c0,2-1.6,3.9-3.5,4.3l-51.9,12.9c-2,0-3.5-1.6-3.5-3.5l0,0c0-2,1.6-3.5,3.5-3.5l51.9-12.9
					C107.4,485.9,109,487.1,109,489.1L109,489.1z"/>
				<path class="st6" d="M108.4,487.3c0.1,0.2,0.1,0.3,0.1,0.6c0,2-1.6,3.9-3.5,4.3l-51.9,12.9c-1.2,0-2.3-0.6-2.9-1.6
					c0.3,1.6,1.7,2.8,3.4,2.8l51.9-12.9c2-0.5,3.5-2.4,3.5-4.3C109,488.3,108.7,487.7,108.4,487.3z"/>
			</g>
			<g>
				<path class="st7" d="M109,502.3c0,2-1.6,3.9-3.5,4.3l-51.9,12.9c-2,0-3.5-1.6-3.5-3.5l0,0c0-2,1.6-3.5,3.5-3.5l51.9-12.9
					C107.4,499.2,109,500.4,109,502.3L109,502.3z"/>
				<path class="st6" d="M108.4,500.6c0.1,0.2,0.1,0.3,0.1,0.6c0,2-1.6,3.9-3.5,4.3l-51.9,12.9c-1.2,0-2.3-0.6-2.9-1.6
					c0.3,1.6,1.7,2.8,3.4,2.8l51.9-12.9c2-0.5,3.5-2.4,3.5-4.3C109,501.6,108.7,501,108.4,500.6z"/>
			</g>
			<g>
				<path class="st7" d="M109,515.5c0,2-1.6,3.9-3.5,4.3l-51.9,12.9c-2,0-3.5-1.6-3.5-3.5l0,0c0-2,1.6-3.5,3.5-3.5l51.9-12.9
					C107.4,512.4,109,513.6,109,515.5L109,515.5z"/>
				<path class="st6" d="M108.4,513.8c0.1,0.2,0.1,0.3,0.1,0.6c0,2-1.6,3.9-3.5,4.3l-51.9,12.9c-1.2,0-2.3-0.6-2.9-1.6
					c0.3,1.6,1.7,2.8,3.4,2.8l51.9-12.9c2-0.5,3.5-2.4,3.5-4.3C109,514.9,108.7,514.2,108.4,513.8z"/>
			</g>
		</g>
		<g>
			<g>
				<path class="st11" d="M222.4,158.5c0,0,2.4-5.6,7.1-2.4c4.7,3.2-0.7,15.8-8,16L222.4,158.5z"/>
				<path class="st12" d="M214.2,107.2c-1.1-0.7-22.2-6.1-27.2-8.1c-5-2-50.3,5.1-52.6,6.2c-2.3,1.1-31.3,10.8-33.6,13.1
					c-2.3,2.3-3.4,34.3-3.4,34.3l0.8,7.8c-1-0.9-4.4-3.3-7.1,0.7c-3.2,4.7-0.2,16.5,9,17L103,205c0.1,0.2,0.2,0.3,0.3,0.5
					c0.6,0.7,1.2,1.7,1.6,2.8c0.3,0.7,0.5,1.6,0.8,2.3c0.5,1.4,1,2.8,1.7,4.1c2,3.9,5.3,6.6,8.2,9.8c3.7,4,6.6,8.7,10.1,12.8
					c2.4,2.8,4.7,5.3,5.9,8.8c1.7,4.7,1.8,9.5,1.7,14.4c1.3,4.3,1.8,8.6-0.5,12.9c0,1,0,2,0,2.9c20.7,16.5,43.6,17.1,64,0.3
					c-0.5-4.7-1.3-9.4-0.8-14.1c0.3-3,0.5-10.9,0.9-13c0.3-1,0.7-3,1-4c2.3-7.2,7.4-14.2,13.8-18.7c0-0.1,0.1-0.2,0.1-0.3
					c0.6-2.6,2.6-3.7,4.8-3.8c0.8-4.4,1.7-8.8,2.6-13.3c2.9-46.4,5.2-83.8,5.2-83.8S215.4,108,214.2,107.2z"/>
				<path class="st13" d="M180.4,221.3c0,0-1.6-1.4-5-1.3c-5.6,0.1-15.1,0.3-17.2-0.1c-3.3-0.7-6.2-3.1-6.2-3.1s1.4,4.1,7.1,4.4
					C164.8,221.5,180.4,221.3,180.4,221.3z"/>
				<path class="st14" d="M156.2,195.7c0,0-10.9,1.8-15.9,8.3s-16.2,3.4-21.1-2.5c0,0,2.5,20.2,23,21.7
					c20.5,1.5,24.7-11.8,24.7-11.8s3.6,11.9,21.4,10.5c16.7-1.4,20.7-21.4,20.7-21.4s-4.9,8.4-14.2,6.9c-9.3-1.5-9.9-10.9-18.2-11.6
					C176.6,195.8,173.7,199.6,156.2,195.7z"/>
				<g class="st0">
					<path class="st15" d="M176.2,193.6c0,0.1-0.3-0.1-0.8-0.3c-0.5-0.1-1.3-0.5-2.2-0.7c-0.9-0.2-1.9-0.6-3-0.7
						c-1.1-0.2-2.3-0.3-3.4-0.5c-1.1-0.1-2.4-0.1-3.4,0c-1.1,0.1-2.2,0.3-3,0.5c-0.9,0.1-1.7,0.6-2.2,0.7c-0.5,0.3-0.9,0.5-0.9,0.5
						s0.3,0.2,0.8,0.6c0.5,0.3,1.2,0.8,2.1,1c0.9,0.2,1.9,0.7,3,0.9c1.1,0.2,2.3,0.2,3.5,0.3c1.2-0.1,2.4-0.1,3.6-0.3
						c1.1-0.2,2.2-0.5,3-0.7c0.9-0.2,1.6-0.6,2.1-0.7C176,193.7,176.2,193.5,176.2,193.6z"/>
					<path class="st16" d="M174.8,188.4c0,0,0.1-0.3,0.1-0.7c0-0.5,0.2-1.1,0.1-1.8c-0.1-0.7,0.1-1.6,0-2.5
						c-0.1-0.9-0.2-1.8-0.3-2.8c-0.2-0.9-0.3-1.8-0.5-2.7c-0.2-0.9-0.5-1.7-0.7-2.4c-0.2-0.7-0.5-1.3-0.6-1.7
						c-0.2-0.4-0.3-0.6-0.3-0.6s-0.1,0.2-0.3,0.7c-0.1,0.4-0.4,1-0.5,1.8c-0.1,0.7-0.3,1.6-0.3,2.5c-0.1,0.9,0.1,1.9,0.2,2.9
						c0.2,1,0.3,1.9,0.7,2.8c0.3,0.9,0.7,1.7,1,2.4c0.3,0.7,0.7,1.2,1,1.6C174.6,188.1,174.8,188.4,174.8,188.4z"/>
					<g class="st17">
						<path class="st18" d="M142.2,145.3c0,0-0.2-0.2-0.7-0.6c-0.5-0.3-1-1-2-1.6c-0.5-0.3-0.9-0.6-1.4-0.9c-0.5-0.3-1.1-0.6-2-0.8
							c-0.9-0.2-2,0.1-2.6,0.3c-0.6,0.2-1.3,0.5-1.9,0.8c-1.2,0.6-2.4,1.3-3.3,2.1c-1,0.7-1.8,1.7-2.5,2.4c-0.7,0.7-1.1,1.6-1.4,2
							c-0.3,0.5-0.5,0.9-0.5,0.9s0.3-0.1,0.9-0.3c0.5-0.2,1.4-0.4,2.2-0.8c0.9-0.4,2-0.7,3-1.3c1.1-0.5,2.1-1,3.3-1.6
							c0.5-0.3,1.1-0.6,1.6-0.9c0.5-0.2,0.7-0.4,1-0.5c0.3-0.1,0.9-0.1,1.4-0.1c0.5,0,1,0.1,1.6,0.1c0.9,0.2,1.8,0.2,2.4,0.3
							C141.9,145.2,142.2,145.3,142.2,145.3z"/>
						<g>
							<path class="st19" d="M153.8,163.9c0,0,0.1-0.3,0.2-1c0.1-0.6,0.2-1.6,0.2-2.8c-0.1-1.1-0.1-2.5-0.4-3.9
								c-0.3-1.4-0.8-2.9-1.4-4.3c-0.7-1.4-1.6-2.7-2.6-3.7c-1-1.1-2.3-1.9-3.4-2.5c-1.1-0.6-2.2-0.6-2.9-0.6
								c-0.7,0.1-1.1,0.2-1.1,0.2s0.3,0.2,0.9,0.6c0.5,0.3,1,1.1,1.7,1.8c0.6,0.7,1.1,1.8,1.8,2.8c0.6,1.1,1.3,2.2,2,3.4
								c0.7,1.1,1.4,2.3,2.1,3.4c0.6,1.1,1.3,2.2,1.7,3.2c0.4,1,0.9,1.8,1.1,2.4C153.7,163.6,153.8,163.9,153.8,163.9z"/>
						</g>
					</g>
					<g class="st17">
						<g>
							<path class="st18" d="M190.7,145.3c0,0,0.3-0.1,0.9-0.2c0.6-0.2,1.4-0.2,2.4-0.3c0.5-0.1,1-0.1,1.6-0.1s1.1,0,1.4,0.1
								s0.5,0.3,1,0.5c0.5,0.3,1.1,0.6,1.6,0.9c1.1,0.5,2.2,1.1,3.3,1.6c1,0.5,2.1,0.8,3,1.3c0.9,0.4,1.7,0.6,2.2,0.8
								c0.6,0.2,0.9,0.3,0.9,0.3s-0.2-0.3-0.5-0.9c-0.3-0.5-0.7-1.3-1.4-2s-1.5-1.7-2.5-2.4c-1-0.8-2.2-1.5-3.3-2.1
								c-0.6-0.3-1.2-0.5-1.9-0.8c-0.6-0.3-1.7-0.5-2.6-0.3c-0.9,0.1-1.5,0.5-2,0.8c-0.5,0.3-1,0.6-1.4,0.9c-0.9,0.5-1.5,1.2-2,1.6
								C191,145.2,190.7,145.3,190.7,145.3z"/>
						</g>
						<g>
							<path class="st19" d="M176.8,162.6c0,0,0.1-0.3,0.3-1c0.1-0.3,0.3-0.7,0.5-1.1c0.2-0.4,0.4-0.9,0.6-1.3c0.4-1,1.2-2,2-3
								c0.8-1,1.7-2.1,2.6-3c0.9-1,1.8-1.9,2.8-2.8c0.9-0.8,1.7-1.8,2.6-2.4c0.4-0.3,0.8-0.7,1.1-1c0.3-0.3,0.6-0.6,0.9-0.8
								c0.5-0.5,0.8-0.7,0.8-0.7s-0.4-0.1-1.1-0.1c-0.3,0-0.8,0-1.3,0.1c-0.5,0-1.1,0.1-1.6,0.3c-1.1,0.3-2.5,0.8-3.8,1.7
								c-1.3,0.8-2.5,2-3.4,3.3c-0.9,1.3-1.7,2.8-2.2,4.3c-0.5,1.4-0.7,2.9-0.8,4c-0.2,1.1,0,2.2,0.1,2.8
								C176.8,162.2,176.8,162.6,176.8,162.6z"/>
						</g>
					</g>
					<g class="st17">
						<path class="st20" d="M131,164.1c1.3-2.8,4-3.2,6.6-0.2c2.2,2.5,0.5,5.2-0.2,7.8c0,0-0.3,0.6-0.5,0.7
							C132.8,175.9,129.6,167,131,164.1z"/>
						<path class="st21" d="M134.2,162.6c0,0-0.1,0.1-0.3,0.1c-0.2,0.1-0.5,0.2-0.8,0.5c-0.2,0.2-0.6,0.5-0.9,0.7
							c-0.3,0.3-0.5,0.6-0.6,1c-0.1,0.3-0.2,0.7-0.2,1c0,0.3,0.2,0.7,0.2,0.9c0.1,0.3,0.3,0.5,0.4,0.6c0.1,0.2,0.2,0.2,0.2,0.2
							s0.1-0.1,0.3-0.2c0.1-0.1,0.4-0.3,0.6-0.6s0.5-0.5,0.6-0.7s0.3-0.6,0.4-0.9c0.1-0.3,0.2-0.6,0.2-0.9s0-0.6,0-0.9
							c0-0.2-0.1-0.5-0.1-0.7C134.2,162.7,134.2,162.6,134.2,162.6z"/>
					</g>
					<g class="st17">
						<path class="st20" d="M193.2,164.2c1.3-2.8,4-3.2,6.6-0.2c2.2,2.5,0.5,6.1-0.2,7.8c0,0-0.4,0.7-0.7,0.9
							C194.6,175.6,191.8,167.1,193.2,164.2z"/>
						<path class="st21" d="M196.2,162.8c0,0-0.1,0.1-0.3,0.1c-0.2,0.1-0.5,0.2-0.8,0.5c-0.2,0.2-0.6,0.5-0.9,0.7
							c-0.3,0.3-0.5,0.6-0.6,1c-0.1,0.3-0.2,0.7-0.2,1c0,0.3,0.2,0.7,0.2,0.9c0.1,0.3,0.3,0.5,0.4,0.6c0.1,0.2,0.2,0.2,0.2,0.2
							s0.1-0.1,0.3-0.2c0.1-0.1,0.4-0.3,0.6-0.6c0.2-0.2,0.5-0.5,0.6-0.7c0.2-0.3,0.3-0.6,0.4-0.9c0.1-0.3,0.2-0.6,0.2-0.9
							c0.1-0.3,0-0.6,0-0.9s-0.1-0.5-0.1-0.7C196.2,162.9,196.2,162.8,196.2,162.8z"/>
					</g>
				</g>
				<g>
					<path class="st22" d="M195.9,92.5c0,0-21.9-25.9-65.4,3.7C130.5,96.2,172.5,59.9,195.9,92.5z"/>
					<g>
						<path class="st14" d="M90.8,105.5c0.6-2,1.8-5.5,3.8-9.8c-0.5-1.7-0.9-3.3-1.4-4.9c-1.8-6.7,3.2-13.4,10.1-13.4
							c0.1,0,0.1,0,0.1,0c4.5,0,9,0.3,13.5,0.3c6.6-0.1,12.9-1.7,19.3-3c14-3,29.9-7.4,44.2-3.8c9.8,2.5,11.7,9.9,17,16.9h0.1
							c4.2-3.6,14.1-6.6,19.1-3.4c8.5,5.3,11.1,17.9,13.3,26.8c2.2,9.1-0.5,16.5-2.9,25.4c-1.1,4.4-1.8,9.1-3.3,13.4l0,0
							c0,0.1-0.1,0.1-0.1,0.1c-0.4,1.2-0.9,2.4-1.4,3.5c-0.5,1.3-1.1,2.5-1.7,3.8c0,0,0.2-2.9,0.2-7.3c-1-3.6-2.5-7.1-3.9-10.5
							c-1.4-3.4-2-7-3.6-10.4c-1.8-4.1-4.2-7.9-5.6-12.2c-1.2-3.8-3.1-7.2-4.5-10.9c-1.2,2.8-11,4.9-14,5.9
							c-9.5,3.3-20.7,3.3-30.7,2.8l0,0c-2.7,1.8-5.6,4-8.6,6.5c0,0-15.2,15.7-46.3,16.2c0,0,1.3,17.2-2.9,23
							C101,160.7,82.5,132.5,90.8,105.5z"/>
						<g>
							<g>
								<path class="st23" d="M200,104.9c0,0,0-0.1-0.1-0.3s-0.1-0.5-0.3-0.8c-0.2-0.7-0.7-1.7-1.4-2.9c-1.6-2.4-4.4-5.3-8.3-8.2
									c-3.9-2.9-8.8-5.7-14.7-7.8c-5.7-2.1-12.3-2.9-18.7-3.1c-6.5-0.1-12.9,0.3-18.8,0.7c-6,0.4-11.5,0.7-16.3,0.5
									c-4.8-0.2-8.7-0.7-11.4-1.4c-1.4-0.3-2.4-0.6-3.2-0.8c-0.7-0.2-1.1-0.3-1.1-0.3s0.3,0.1,1.1,0.4c0.7,0.2,1.7,0.7,3,1.1
									c2.7,0.8,6.6,1.8,11.4,2.3c4.8,0.5,10.5,0.5,16.5,0.2c6-0.2,12.4-0.6,18.7-0.5s12.6,0.9,18.2,2.7c5.6,1.8,10.6,4.3,14.5,6.9
									c3.9,2.6,7,5.2,8.7,7.5c0.9,1.1,1.4,2.1,1.7,2.8c0.2,0.3,0.2,0.6,0.3,0.8C200,104.8,200,104.9,200,104.9z"/>
							</g>
							<g>
								<path class="st23" d="M192.1,90.2c0,0-0.3-0.3-0.9-0.8c-0.6-0.5-1.4-1.3-2.5-2.1c-1.1-0.8-2.4-1.7-3.8-2.6
									c-1.4-0.9-3-1.7-4.7-2.5c-1.7-0.7-3.3-1.4-4.9-1.8c-1.6-0.5-3.2-0.7-4.5-1c-1.3-0.2-2.5-0.3-3.2-0.3c-0.8,0-1.3,0-1.3,0
									s0.4,0.2,1.1,0.4c0.7,0.2,1.8,0.6,3,1c1.3,0.4,2.7,1,4.3,1.5c1.6,0.6,3.2,1.2,4.8,1.8c1.6,0.6,3.2,1.4,4.7,2.1
									c1.5,0.7,2.9,1.4,4,2c1.1,0.6,2.1,1.1,2.8,1.6C191.7,89.9,192.1,90.2,192.1,90.2z"/>
							</g>
							<g>
								<path class="st23" d="M190.6,85.6c0,0-0.1-0.1-0.4-0.3c-0.3-0.2-0.6-0.6-1.1-1c-1-0.9-2.5-2-4.4-3.1c-2-1.1-4.4-2.2-7.1-3.1
									c-2.7-0.9-5.7-1.4-8.7-1.8c-3-0.3-6-0.3-8.8-0.2c-2.8,0.1-5.4,0.5-7.6,0.8c-2.2,0.3-4,0.7-5.3,1c-1.3,0.3-2,0.4-2,0.4
									s0.7,0,2.1,0c1.3-0.1,3.2-0.1,5.4-0.1c2.2-0.1,4.8-0.1,7.5-0.1c2.8,0,5.7,0.1,8.6,0.3c2.9,0.2,5.7,0.7,8.4,1.3
									c2.6,0.6,5.1,1.4,7.1,2.3s3.6,1.8,4.7,2.5c0.6,0.3,1,0.6,1.3,0.9C190.5,85.5,190.6,85.6,190.6,85.6z"/>
							</g>
							<g>
								<path class="st23" d="M190.2,80.5c0,0-0.2-0.3-0.6-0.7c-0.4-0.5-0.9-1.1-1.7-1.8s-1.7-1.5-2.7-2.2c-1-0.7-2.3-1.4-3.5-2
									c-1.3-0.5-2.6-1-3.8-1.3c-1.3-0.3-2.5-0.3-3.5-0.4c-1-0.1-1.9,0.1-2.5,0.1c-0.6,0.1-0.9,0.2-0.9,0.2s0.3,0.1,0.9,0.2
									c0.6,0.1,1.4,0.3,2.4,0.5c1,0.2,2.1,0.6,3.2,0.9c1.1,0.4,2.4,0.8,3.6,1.3c1.2,0.5,2.4,1,3.5,1.6c1.1,0.6,2.1,1.1,2.9,1.7
									c0.8,0.6,1.6,1,2,1.4C189.9,80.3,190.2,80.5,190.2,80.5z"/>
							</g>
							<g>
								<path class="st23" d="M123.8,110.4c0,0-0.6-0.2-1.6-0.5c-0.5-0.1-1-0.4-1.7-0.6c-0.6-0.3-1.4-0.6-2.2-0.9
									c-1.6-0.7-3.3-1.7-5.2-2.8c-1.8-1.1-3.7-2.4-5.5-3.8c-1.8-1.4-3.4-3-5-4.5c-1.4-1.6-2.9-3-3.9-4.4c-0.5-0.7-1-1.3-1.4-1.8
									c-0.5-0.6-0.8-1-1.1-1.5c-0.6-0.8-1-1.3-1-1.3s0.2,0.6,0.6,1.5c0.2,0.5,0.5,1,0.7,1.7c0.3,0.6,0.7,1.4,1.1,2.1
									c0.9,1.6,2.1,3.2,3.6,4.9c1.5,1.7,3.3,3.3,5.1,4.8c1.9,1.4,4,2.7,5.9,3.7c2,1,4,1.7,5.6,2.2c0.9,0.3,1.6,0.5,2.4,0.6
									c0.7,0.2,1.3,0.3,1.8,0.3C123.2,110.3,123.8,110.4,123.8,110.4z"/>
							</g>
							<g>
								<path class="st23" d="M153.4,113.9c0,0-0.6-0.3-1.6-0.8c-0.5-0.2-1.1-0.6-1.8-1c-0.7-0.4-1.5-0.9-2.3-1.4
									c-1.7-1.1-3.4-2.5-5.4-4.1c-1.9-1.6-3.9-3.3-5.9-5.1c-2-1.7-4-3.5-6-5.1c-2-1.6-3.9-2.9-5.6-4c-0.9-0.6-1.7-1-2.4-1.4
									c-0.7-0.4-1.4-0.7-1.9-0.9c-1.1-0.5-1.7-0.7-1.7-0.7s0.6,0.3,1.6,1c0.5,0.3,1.1,0.7,1.7,1.2c0.6,0.5,1.4,1,2.2,1.6
									c1.6,1.1,3.3,2.7,5.2,4.3c1.9,1.6,3.8,3.4,5.9,5.1s4.1,3.4,6.1,4.9c2,1.5,4,2.8,5.8,3.7c0.9,0.5,1.7,0.9,2.5,1.2
									c0.7,0.3,1.4,0.6,2,0.8C152.7,113.6,153.4,113.9,153.4,113.9z"/>
							</g>
							<g>
								<path class="st23" d="M169.7,114.3c0,0-0.9-0.1-2.2-0.6c-1.4-0.4-3.3-1.2-5.5-2.4c-2.2-1.2-4.5-2.9-7-4.9
									c-2.4-2-5-4.2-7.6-6.3c-2.6-2.1-5.5-4.1-8.2-5.7c-2.8-1.6-5.5-2.8-7.9-3.8c-2.4-1-4.4-1.6-5.8-2c-1.4-0.3-2.2-0.6-2.2-0.6
									s0.8,0.3,2.1,0.9c1.4,0.6,3.2,1.5,5.5,2.6c2.2,1.1,4.8,2.6,7.4,4.3c2.6,1.7,5.3,3.6,7.9,5.7c2.6,2.1,5.2,4.3,7.8,6.1
									c2.6,1.8,5.2,3.3,7.5,4.4c2.4,1.1,4.4,1.6,5.9,1.9C168.8,114.1,169.7,114.3,169.7,114.3z"/>
							</g>
							<g>
								<path class="st23" d="M177,113.8c0,0-0.3-0.1-0.9-0.3c-0.6-0.2-1.4-0.6-2.4-1c-1-0.4-2-1-3.1-1.8c-1.1-0.7-2.2-1.6-3.3-2.4
									c-1.1-0.8-2.2-1.7-3.3-2.5c-1.1-0.8-2.2-1.4-3.1-2c-0.9-0.6-1.8-0.9-2.4-1.2c-0.6-0.2-0.9-0.3-0.9-0.3s0.3,0.2,0.7,0.6
									c0.5,0.4,1.1,1,2,1.7s1.7,1.6,2.8,2.4s2.1,1.8,3.3,2.6c1.1,0.9,2.4,1.6,3.7,2.2c1.2,0.6,2.5,1,3.5,1.3c1,0.3,2,0.4,2.6,0.5
									C176.6,113.7,177,113.8,177,113.8z"/>
							</g>
							<g>
								<path class="st23" d="M196.9,107c0,0-0.3-0.6-1-1.7c-0.6-1-1.6-2.5-3-4c-1.4-1.6-3.1-3.3-5.2-4.9c-2.1-1.7-4.4-3.2-7-4.4
									c-2.5-1.3-5.1-2.3-7.6-3.1c-2.5-0.8-4.9-1.3-6.9-1.7c-2.1-0.4-3.8-0.6-5-0.7c-1.2-0.1-1.9-0.2-1.9-0.2s0.7,0.2,1.8,0.5
									c1.1,0.3,2.8,0.9,4.8,1.4c2,0.6,4.3,1.4,6.6,2.2c2.4,0.9,4.9,1.9,7.3,3.1c2.4,1.2,4.8,2.6,6.8,4c2.1,1.4,4,2.9,5.5,4.3
									c1.5,1.4,2.6,2.6,3.4,3.6C196.5,106.5,196.9,107,196.9,107z"/>
							</g>
							<g>
								<path class="st23" d="M208.3,88.2c0,0,0.3-0.1,0.8-0.2c0.5-0.1,1.2,0,2,0.2c0.8,0.2,1.7,0.6,2.5,1.1
									c0.9,0.5,1.8,1.1,2.6,1.8c0.9,0.7,1.6,1.4,2.4,2.2c0.7,0.7,1.4,1.5,1.8,2.2c0.5,0.7,0.9,1.3,1,1.8c0.2,0.5,0.3,0.7,0.3,0.7
									s0-0.3,0-0.9c-0.1-0.5-0.1-1.3-0.3-2.2c-0.3-0.9-0.7-2-1.3-2.9c-0.6-1-1.6-2-2.5-2.8c-1-0.8-2.1-1.4-3.3-1.8
									c-1.1-0.4-2.3-0.5-3.3-0.5c-1,0.1-1.7,0.4-2.2,0.6c-0.2,0.1-0.4,0.2-0.5,0.3C208.3,88.1,208.3,88.2,208.3,88.2z"/>
							</g>
							<g>
								<path class="st23" d="M209.7,90.1c0,0,0.1,0.1,0.3,0.2c0.2,0.1,0.4,0.3,0.7,0.5c0.3,0.2,0.6,0.5,0.9,0.7s0.6,0.5,1,0.7
									c0.3,0.2,0.7,0.5,1,0.7c0.3,0.2,0.7,0.4,0.9,0.6c0.3,0.2,0.6,0.3,0.7,0.5c0.2,0.1,0.3,0.2,0.3,0.2s0-0.1-0.1-0.3
									c-0.1-0.2-0.1-0.5-0.3-0.8c-0.2-0.3-0.4-0.7-0.7-1c-0.3-0.3-0.7-0.6-1.1-0.9c-0.4-0.3-0.9-0.5-1.3-0.6s-0.9-0.2-1.2-0.3
									c-0.3-0.1-0.7,0-0.9-0.1C209.8,90.1,209.7,90.1,209.7,90.1z"/>
							</g>
							<g>
								<path class="st23" d="M204.7,92c0,0,0.3,0.1,0.9,0.2c0.6,0.1,1.3,0.5,2.2,0.8c0.9,0.3,1.8,0.9,2.9,1.4c1,0.6,2.1,1.2,3,2
									c1,0.7,1.9,1.6,2.7,2.4c0.8,0.9,1.6,1.6,2.1,2.4c0.3,0.4,0.6,0.7,0.7,1c0.2,0.3,0.5,0.6,0.6,0.9c0.3,0.5,0.5,0.7,0.5,0.7
									s-0.1-0.3-0.2-0.9c-0.1-0.3-0.1-0.6-0.2-1c-0.1-0.4-0.2-0.9-0.5-1.3c-0.4-0.9-1-2-1.7-3c-0.8-1-1.8-2-2.8-2.8
									c-1.1-0.8-2.3-1.5-3.5-2c-1.2-0.5-2.4-0.7-3.4-0.9c-0.5-0.1-1-0.1-1.4-0.1c-0.4,0-0.7,0-1,0.1C205.1,92,204.7,92,204.7,92z"
									/>
							</g>
							<g>
								<path class="st23" d="M206.8,97.1c-0.1,0,0.1-0.3,0.5-0.2c0.3,0.1,0.9,0.3,1.5,0.6c0.6,0.3,1.1,0.8,1.8,1.3
									c0.6,0.5,1.4,1.1,2,1.7c0.7,0.6,1.3,1.2,2,1.8c0.6,0.6,1.3,1.1,1.7,1.6c0.5,0.5,1,0.9,1.3,1.1s0.5,0.5,0.5,0.5
									s-0.1-0.2-0.2-0.6c-0.2-0.4-0.3-1-0.7-1.6c-0.3-0.6-0.8-1.4-1.4-2.1c-0.6-0.7-1.3-1.4-2-2c-0.7-0.6-1.6-1.1-2.3-1.6
									c-0.8-0.5-1.7-0.7-2.4-0.9c-0.7-0.2-1.4-0.1-1.8,0C206.7,96.8,206.8,97.1,206.8,97.1z"/>
							</g>
							<g>
								<path class="st23" d="M206.5,105.5c0,0,0.1-0.2,0.4-0.1c0.1,0,0.3,0.1,0.5,0.2c0.2,0.1,0.3,0.3,0.6,0.5
									c0.5,0.3,0.9,0.7,1.4,1.1c0.5,0.4,1.1,0.8,1.6,1.3c0.6,0.4,1,0.9,1.6,1.3s1,0.7,1.4,1.1c0.4,0.3,0.8,0.6,1,0.9
									c0.3,0.2,0.4,0.3,0.4,0.3s-0.1-0.2-0.1-0.5c-0.1-0.3-0.2-0.8-0.5-1.3s-0.6-1.1-1-1.6c-0.5-0.6-1-1.1-1.6-1.6
									c-0.6-0.5-1.3-0.9-1.9-1.2c-0.6-0.3-1.3-0.5-1.8-0.6c-0.3-0.1-0.5-0.1-0.7-0.2c-0.3-0.1-0.5-0.1-0.7,0
									C206.5,105.2,206.5,105.5,206.5,105.5z"/>
							</g>
						</g>
					</g>
				</g>
			</g>
			<path class="st24" d="M204.7,261.1c19.7,6.3,31,24.8,42.6,45.7c11.3,20.5,12.5,51.4,17.2,87l-23.3,4.2
				c-4.1-31.4-4.3-58.3-13.6-75.6c9.9,56.1-19.4,221-60.7,228.5c4.3-23.5,26.4-64.8,26.4-106.9h-19.7c-2.7,0.9-8.4,0-11.3,0
				s-5.8,0.9-8.5,0h-21.4c-2.3,42.8,21.4,83.8,24.5,106.9C126.3,545.4,96,444.1,96,374.8l0,0c-1.4-8.3-2.2-16.9-2.2-25.9l-5.3,11.7
				v-29.2c1.8,1,3.8,2.1,6,3.2c1.2-12.9,4-25.1,8.1-36c-4.9,1.8-9.7,4-14.1,6.4v-29.2c14.2-5.6,28.3-8.7,45.3-20.3
				c0,12,17.9,21.7,33.4,21.7s28.2-9.7,28.2-21.7C200,258.7,200.5,260.7,204.7,261.1z M88.5,360.6l-0.1,0.3
				C70.1,352.5,59,343.7,53.2,335l0,0c-6.3-9.7-6.7-19.2-3-28.2c3.1-7.5,9.1-14,16.7-19.4c7.5-5.4,14.7-8.8,21.7-11.6V305
				c-2.2,1.3-4.3,2.6-6.3,4c-3.8,2.8-6.7,5.5-7.6,7.9c-0.4,1-0.2,2.2,0.7,3.7v0.1c2.1,3.3,6.3,6.8,13.2,10.7V360.6z"/>
			<path class="st14" d="M126.4,224.3c0,0,9.5,4.4,15.7,5.1c6.3,0.6,5,4.7,9.2,7.8c2.5,1.8,7.3,2.6,9.2,2.4c2-0.3,4-1.3,5.1-3.8
				c1.7-4.3-2.5-7.2-2.5-7.2l0,0l0,0l-3.6-2.4c8.8,1.4,17.4-0.2,17.4-0.2l-2.9,2.6l0,0c-1.4,1.3-2.5,3.1-1.9,6.3
				c0.9,4.8,8.4,2.9,8.7,2.8c5-2,9.4-4.7,11.2-7.7c3.1-5.2,1.5-4.6,8-7.3s18.3-5.9,21.2-40.9l-2.1,42.9c0,0-2.7,26.1-20.1,35.8
				c0,0,6.1-8.1,7.4-15.1c0,0-11.4,19.3-25.6,25.9c0,0,1.1-1.1,2.1-4.7c0,0-8,5.8-18.3,4.7l-5.1-1.3c0,0-10.4,0.7-16.4-3.3
				c0,0-3.3-2.5-4.7-6.4c0,0,1.3,5.6,4,7.9c0,0-10.6-6.5-13.3-14.2c0,0,2,7.3,4.7,10c0,0-21.7-14.9-29.6-41.2l-2.5-29.8
				C101.7,192.7,108.1,216.2,126.4,224.3z"/>
			<path class="st25" d="M133.2,242.8c-1.7-5.3-1-4-1-4s15.6,10.6,34.8,10.1c19.3-0.6,33.8-12.8,33.8-12.8s0.3,2.3-1.1,4.9
				c4.4-3.3,16.5-18.4,16.8-35.8c-4.9,13.3-12.1,15.4-16.6,17.3c-6.5,2.7-4.9,2.1-8,7.3c-1.8,3-6.2,5.8-11.2,7.7
				c-0.3,0.1-7.9,2.1-8.7-2.8c-0.6-3.2,0.5-5,1.9-6.3l0,0l2.9-2.6c0,0-6.7,1.3-14.2,0.6c-0.8,0.1-2.4-0.4-3.1-0.4l3.6,2.4
				c0,0,4.2,2.9,2.5,7.2c-1,2.6-3,3.6-5.1,3.8c-1.9,0.2-6.7-0.6-9.2-2.4c-4.2-3.1-2.2-6.6-9.2-7.8c-20.3-3.2-30.6-16-31.5-18.6
				C111.8,223.1,126.7,241,133.2,242.8z"/>
			<g>
				<path class="st26" d="M124.5,261.2v58.9h-14.7V268C114.5,266.2,119.4,264,124.5,261.2z"/>
				<path class="st26" d="M215.4,266.1v54.4h-14.7v-60.1c1.4,0.3,2.8,0.6,4,0.7C208.5,262.3,212,263.9,215.4,266.1z"/>
				<path class="st27" d="M231.3,370.8c-5.7,69-25.7,168.1-64.4,180.1c4.3-23.5,3.2-63.9,3.2-106.1v-0.1c-2.7,0.9-5.5,1.4-8.3,1.4
					c-2.9,0-5.6-0.5-8.3-1.4v0.1c-2.3,42.8,0.5,83,3.5,106.1c-38.5-9.2-59.4-112-63.5-179.9l16.5-0.6v-53.6h105.5v53.6L231.3,370.8z
					"/>
				<path class="st28" d="M208.3,334.2c2.1,0,3.8-1.7,3.8-3.8c0-2.1-1.7-3.8-3.8-3.8s-3.8,1.7-3.8,3.8
					C204.5,332.4,206.1,334.2,208.3,334.2z"/>
			</g>
			<path class="st29" d="M113.2,522.7c14.8,0,34.9,9.1,43.7,28.2H89C88.5,531.4,98.4,522.7,113.2,522.7z"/>
			<path class="st29" d="M212.4,523.9c-15.5,0-36.4,8.7-45.5,26.9h70.7C238.2,532.2,227.8,523.9,212.4,523.9z"/>
			<path class="st12" d="M93.3,328.8c1.9-6.8,2.8-24.2,8.6-23.7c4.9,0.5,6.1,0.7,4,13.3c-1,5.6-2.8,14,4.2,14
				c6.9,0,17.2-4.4,15.6,3.7c-1.6,8.2,3,3.7,0.6,11.6s-1.7,6.1-2.4,12.1c-0.9,6.8-2.9,4.9-6.5,10.5c-4.5,7.1-36.2-1.7-35.8-14.5
				C82.4,323.5,91.4,335.5,93.3,328.8z"/>
			<g>
				<path class="st10" d="M159.5,41.7c9.3,0,18.2,1.5,26.5,4.2c2.4,0.7,3.6,3.3,2.6,5.6l-25.3,61.4c-1.4,3.6-6.6,3.6-8.1,0
					l-25.2-61.3c-0.9-2.2,0.2-4.8,2.6-5.6C141.1,43.2,150.2,41.7,159.5,41.7z"/>
				<path class="st10" d="M159.5,47.3c42.2,0,76.7,32.5,78,73.1h-156C82.9,79.8,117.3,47.3,159.5,47.3z"/>
				<path class="st7" d="M83.5,122.9h152.2c2.5,0,4.5-2.1,4.5-4.7v-12c0-2.6-2-4.7-4.5-4.7H83.5c-2.5,0-4.5,2.1-4.5,4.7v12
					C79,120.8,81,122.9,83.5,122.9z"/>
				<path class="st10" d="M159.5,47.3c37.7,0,68.4,32.5,69.6,73.1H89.9C91.2,79.8,121.9,47.3,159.5,47.3z"/>
				<path class="st10" d="M159.5,135.3c38.1,0,69.1-6.7,70.3-14.9H89.3C90.5,128.7,121.5,135.3,159.5,135.3z"/>
				<path class="st7" d="M83.5,122.9h152.2c2.5,0,4.5-2.1,4.5-4.7v-4.1H79v4.1C79,120.8,81,122.9,83.5,122.9z"/>
				<path class="st7" d="M187.6,52.3c2.9,1.1,5.7,2.4,8.5,3.8l-22.4,30.7L187.6,52.3L187.6,52.3z M122.9,56.2
					c2.6-1.4,5.4-2.6,8.2-3.7l13.3,33.3L122.9,56.2z"/>
			</g>
			<g>
				<path class="st30" d="M218.1,375.9c0,0,13.4-5.3,13.3-5.2c-0.2,0.1,1.2,14,0.7,16.4c-0.5,2.4-11.6,8.4-11.6,8.4L218.1,375.9z"/>
				<path class="st30" d="M106.7,375.9c0,0-13.4-5.1-13.3-4.9c0.1,0.2-1.1,13.7-0.6,16.1c0.5,2.4,11.6,8.4,11.6,8.4L106.7,375.9z"/>
				<path class="st31" d="M218.1,375.9c-6.2,1.5-28.1,7.1-55.1,8.5c-27-1.4-49-7-55.1-8.5c-4.1-1-4.5,2.2-4.5,3.3
					c0,1.1,0,12.3,0,14.5c0,2.2,8.3,15.5,10.1,18.8c1.4,2.7,3.3,4.5,7.3,6.1c2.3,2,26,5.5,42.3,4.7c16.3,0.8,40-2.7,42.3-4.7
					c4-1.7,5.9-3.4,7.3-6.1c1.8-3.4,10.1-16.7,10.1-18.8c0-2.2,0-13.3,0-14.5C222.6,378,222.2,374.8,218.1,375.9z"/>
			</g>
			<g>
				<g>
					<path class="st10" d="M165.8,381.6c-1.7-0.1-3.2,1.9-3,4.9c0.2,3.1,3,47.5,3.2,49.9c0.2,2.3,2.1,4.6,5.3,4.4
						c3.2-0.2,40-2.6,43.4-2.8c3.3-0.2,5.9-1.5,5.6-6.5c-0.3-5-3.2-49.4-3.3-51.4c-0.1-2-0.7-4.6-3.4-4.3
						C210.7,376.1,189,382.6,165.8,381.6z"/>
					<path class="st7" d="M199.2,406.5c-0.1-0.7-0.7-1.3-1.4-1.3l-5.1,0.3c-0.7,0.1-1.3,0.7-1.3,1.4l1.9,28.9
						c0.1,0.7,0.7,1.3,1.4,1.3l5.1-0.3c0.7-0.1,1.3-0.7,1.3-1.4L199.2,406.5z"/>
					<path class="st7" d="M208.1,405.9c-0.1-0.7-0.7-1.3-1.4-1.3l-5.1,0.3c-0.7,0.1-1.3,0.7-1.3,1.4l1.9,28.9
						c0.1,0.7,0.7,1.3,1.4,1.3l5.1-0.3c0.7-0.1,1.3-0.7,1.3-1.4L208.1,405.9z"/>
					<path class="st7" d="M216.9,405.3c-0.1-0.7-0.7-1.3-1.4-1.3l-5.1,0.3c-0.7,0.1-1.3,0.7-1.3,1.4l1.9,28.9
						c0.1,0.7,0.7,1.3,1.4,1.3l5.1-0.3c0.7-0.1,1.3-0.7,1.3-1.4L216.9,405.3z"/>
				</g>
				<g>
					<path class="st7" d="M191.9,436c0.1,0.7-0.5,1.4-1.3,1.4l-21.4,1.4c-0.7,0.1-1.4-0.5-1.4-1.3l-2.5-38.3
						c-0.1-0.7,0.5-1.4,1.3-1.4l21.4-1.4c0.7-0.1,1.4,0.5,1.4,1.3L191.9,436z"/>
					<g>
						
							<rect x="168.6" y="399.1" transform="matrix(0.9979 -6.452335e-02 6.452335e-02 0.9979 -26.571 12.3958)" class="st32" width="20.1" height="37"/>
						<line class="st32" x1="167.4" y1="399.8" x2="189.8" y2="435.5"/>
						<line class="st32" x1="187.5" y1="398.5" x2="169.8" y2="436.7"/>
					</g>
				</g>
				<g>
					<polygon class="st33" points="197.7,428.4 196,401.4 193.9,401.5 195.7,428.5 195.2,429.6 195.3,431.8 196.5,435.1 197.7,435 
						198.5,431.6 198.4,429.5 					"/>
					
						<rect x="193" y="398.2" transform="matrix(0.9979 -6.453268e-02 6.453268e-02 0.9979 -25.3747 13.4078)" class="st29" width="3.7" height="2.6"/>
					<path class="st31" d="M198.3,401.3c0,0.3-0.2,0.5-0.5,0.6l-5.5,0.3c-0.3,0-0.5-0.2-0.6-0.5l-0.1-0.9c0-0.3,0.2-0.5,0.5-0.6
						l5.5-0.3c0.3,0,0.5,0.2,0.6,0.5L198.3,401.3z"/>
					<path class="st31" d="M197.5,398c0,0.4-0.3,0.7-0.7,0.8l-4,0.2c-0.4,0-0.7-0.3-0.8-0.7l-0.9-14.3c0-0.4,0.3-0.7,0.7-0.8l4-0.2
						c0.4,0,0.7,0.3,0.8,0.7L197.5,398z"/>
					<path class="st29" d="M195.4,396.5c0,0.5-0.3,0.8-0.7,0.9l0,0c-0.5,0-0.8-0.3-0.9-0.7l-0.7-11c0-0.5,0.3-0.8,0.7-0.9l0,0
						c0.5,0,0.8,0.3,0.9,0.7L195.4,396.5z"/>
				</g>
				<g>
					<polygon class="st33" points="206.6,427.8 204.8,400.8 202.8,401 204.6,427.9 204.1,429.1 204.2,431.2 205.4,434.5 
						206.6,434.5 207.3,431 207.2,428.9 					"/>
					
						<rect x="201.9" y="397.6" transform="matrix(0.9979 -6.449334e-02 6.449334e-02 0.9979 -25.304 13.9685)" class="st34" width="3.7" height="2.6"/>
					<path class="st35" d="M207.1,400.7c0,0.3-0.2,0.5-0.5,0.6l-5.5,0.3c-0.3,0-0.5-0.2-0.6-0.5l-0.1-0.9c0-0.3,0.2-0.5,0.5-0.6
						l5.5-0.3c0.3,0,0.5,0.2,0.6,0.5L207.1,400.7z"/>
					<path class="st35" d="M206.4,397.4c0,0.4-0.3,0.7-0.7,0.8l-4,0.2c-0.4,0-0.7-0.3-0.8-0.7l-0.9-14.3c0-0.4,0.3-0.7,0.7-0.8
						l4-0.2c0.4,0,0.7,0.3,0.8,0.7L206.4,397.4z"/>
					<path class="st34" d="M204.3,395.9c0,0.5-0.3,0.8-0.7,0.9l0,0c-0.5,0-0.8-0.3-0.9-0.7l-0.7-11c0-0.5,0.3-0.8,0.7-0.9l0,0
						c0.5,0,0.8,0.3,0.9,0.7L204.3,395.9z"/>
				</g>
				<g>
					<polygon class="st33" points="215.4,427.2 213.7,400.2 211.7,400.4 213.4,427.3 212.9,428.5 213.1,430.6 214.2,434 
						215.5,433.9 216.2,430.5 216.1,428.3 					"/>
					
						<rect x="210.7" y="397.1" transform="matrix(0.9979 -6.452905e-02 6.452905e-02 0.9979 -25.2624 14.5466)" class="st36" width="3.7" height="2.6"/>
					<path class="st37" d="M216,400.2c0,0.3-0.2,0.5-0.5,0.6l-5.5,0.3c-0.3,0-0.5-0.2-0.6-0.5l-0.1-0.9c0-0.3,0.2-0.5,0.5-0.6
						l5.5-0.3c0.3,0,0.5,0.2,0.6,0.5L216,400.2z"/>
					<path class="st37" d="M215.2,396.8c0,0.4-0.3,0.7-0.7,0.8l-4,0.3c-0.4,0-0.7-0.3-0.8-0.7l-0.9-14.3c0-0.4,0.3-0.7,0.7-0.8
						l4-0.2c0.4,0,0.7,0.3,0.8,0.7L215.2,396.8z"/>
					<path class="st36" d="M213.2,395.3c0,0.5-0.3,0.8-0.7,0.9l0,0c-0.5,0.1-0.8-0.3-0.9-0.7l-0.7-11c0-0.5,0.3-0.8,0.7-0.9l0,0
						c0.5,0,0.8,0.3,0.9,0.7L213.2,395.3z"/>
				</g>
			</g>
			<g>
				<path class="st38" d="M270,442.7l-7,4.1c-1,0.6-2.2,0.2-2.8-0.7l-48.8-82.5c-0.6-1-0.2-2.2,0.7-2.8l7-4.1c1-0.6,2.2-0.2,2.8,0.7
					l48.8,82.5C271.3,440.9,271,442.2,270,442.7z"/>
				<path class="st29" d="M215,338.7l-28.2,16.6c-1,0.6-1.3,1.8-0.7,2.8l7.7,13c0.6,1,1.8,1.3,2.8,0.7l11.1-6.6l2.4,4.1
					c0.6,1,1.8,1.3,2.8,0.7l14.7-8.7c1-0.6,1.3-1.8,0.7-2.8l-2.4-4.1c0.2-7.9,5.3-10.5,14.5-8.6C235.2,337.2,227.8,332.5,215,338.7z
					"/>
			</g>
			<path class="st12" d="M258.4,423.6c-4.7,3.5-11.3,10.3-14,3.9s-5.1-0.5-8.1-6.7c-3-6.3-5.6-4.6-6.1-9.7c-0.6-5.1-3-6.6-1.8-12.1
				c2.1-9.3,25.1-20.4,31.8-11.8c4.1,5.2,8.5,12.6,8.3,17.1c-0.1,2-1,8.7-2.4,10.1C262.7,417.6,259.7,422.6,258.4,423.6z"/>
		</g>
	</g>
	<path class="st39" d="M121.7,155.7l31.9-2.8"/>
	<path class="st14" d="M121.3,152.9l31.8-2.8l4.6-0.4l-1.1-9.9l-33.7,5.5l-4.7,0.7L121.3,152.9z"/>
	<path class="st39" d="M208.7,156.7l-29.7-5.5"/>
	<path class="st14" d="M208.1,155.5l-29.7-5.5l-4.2-0.8l1.7-9.1l31,8.1l4.5,1.2L208.1,155.5z"/>
	<path class="st40" d="M149.9,169.2c0.1,3.4-1.4,9.4-5.7,9.5c-4.4,0.1-5.9-6-6-9.3"/>
	<path class="st40" d="M191.3,169.2c0.1,3.2-1.1,9.4-5.4,9.5c-4.3,0.1-5.6-6.1-5.7-9.3"/>
	<path d="M147.7,167.7c0.1,2.1-0.5,7.9-3.6,7.9c-3.2,0.1-3.8-5.7-3.8-7.8s0.5-7.9,3.6-7.9C147.1,159.8,147.7,165.6,147.7,167.7z"/>
	<path d="M189.6,167.8c0.1,2.1-0.5,7.9-3.6,7.9c-3.2,0.1-3.8-5.7-3.8-7.8s0.5-7.9,3.6-7.9C188.9,159.9,189.6,165.7,189.6,167.8z"/>
	<path class="st39" d="M208.5,157.1l-28.3-4.9l-4-0.7l1.6-8.7l29.5,7.4l4.3,1.1L208.5,157.1z"/>
	<path class="st39" d="M119.9,155.2l31.4-2.6l4.5-0.4l-1-9.7l-33.2,5.2l-4.7,0.7L119.9,155.2z"/>
</g>
</svg>
