<?xml version="1.0" encoding="utf-8"?>
<!-- Generator: Adobe Illustrator 22.0.0, SVG Export Plug-In . SVG Version: 6.00 Build 0)  -->
<svg version="1.1" xmlns="http://www.w3.org/2000/svg" xmlns:xlink="http://www.w3.org/1999/xlink" x="0px" y="0px"
	 viewBox="0 0 335 324" style="enable-background:new 0 0 335 324;" xml:space="preserve">
<style type="text/css">
	.st0{fill:none;stroke:#FFFFFF;stroke-width:5;stroke-miterlimit:10;stroke-dasharray:6;}
	.st1{fill:none;stroke:#FFFFFF;stroke-width:5;stroke-miterlimit:10;}
	.st2{fill:#96AA7B;}
	.st3{fill:#FFFFFF;}
	.st4{fill:#CFCFCF;}
	.st5{fill:#D1EDAB;}
	.st6{fill:#B4CD93;}
	.st7{fill:#AAAAAA;}
</style>
<g id="background">
</g>
<g id="Objects_1_">
	<g>
		<g id="line">
			<path class="st0" d="M422.1,113.6"/>
			<path class="st0" d="M162,170.8"/>
			<path class="st1" d="M286.2-63.6"/>
			<path class="st1" d="M162,170.8"/>
			<path class="st0" d="M42.3-63.6"/>
			<path class="st0" d="M162,170.8"/>
			<path class="st1" d="M-93,117.7"/>
			<path class="st1" d="M162,170.8"/>
			<path class="st0" d="M-29.7,352.9"/>
			<path class="st0" d="M162,170.8"/>
			<path class="st1" d="M355,353"/>
			<path class="st1" d="M162,170.8"/>
			<path class="st1" d="M162,433.6"/>
			<path class="st1" d="M162,170.8"/>
		</g>
		<g id="email">
			<path class="st2" d="M276.2,102.9l29.8,11.6v175c0,9.9-8,18-17.9,18H48c-9.9,0-17.9-8-17.9-18v-175l29.8-9.1"/>
			<path class="st3" d="M79.5,224.4c-9.9,0-18-8.1-18-18V49.5c0-9.9,8.1-18,18-18h177.1c9.9,0,18,8.1,18,18v156.9
				c0,9.9-8.1,18-18,18H79.5z"/>
			<g>
				<rect x="134.7" y="73.2" class="st4" width="71.5" height="6.9"/>
				<rect x="134.7" y="99.4" class="st4" width="110.7" height="6.9"/>
				<rect x="81.6" y="125.7" class="st4" width="163.8" height="6.9"/>
				<rect x="81.6" y="151.9" class="st4" width="163.8" height="6.9"/>
				<rect x="81.6" y="178.2" class="st4" width="163.8" height="6.9"/>
			</g>
			<path class="st5" d="M142.5,203L31.2,295.8c2.6,6.8,9.1,11.6,16.7,11.6H288c7.7,0,14.2-4.8,16.7-11.6L195.5,203H142.5z"/>
			<g>
				<path class="st6" d="M194.9,203.5l109.9,92.3c-0.3,0.9-0.8,1.8-1.2,2.6l0,0c1.5-2.6,2.4-5.7,2.4-9v-175L194.9,203.5z"/>
				<path class="st6" d="M31.2,295.8L142,203.5l-112-89v175c0,3.3,0.9,6.3,2.4,9l0,0C32,297.6,31.6,296.7,31.2,295.8z"/>
			</g>
		</g>
		<g id="_x40_">
			<g>
				<path class="st3" d="M171.8,266.5h-0.2c-1.6,4.4-4.6,6.6-8.8,6.6c-3.2,0-5.8-1.2-7.7-3.5c-2-2.3-2.9-5.5-2.9-9.6
					c0-5.3,1.4-9.6,4.1-12.9c2.7-3.3,6-5,9.8-5c3.4,0,5.6,1.4,6.5,4.1h0.1l0.3-3.4h7.8c-1,9.9-1.6,16.3-1.6,19.3
					c0,3.2,0.9,4.9,2.6,4.9c1.9,0,3.4-1.2,4.6-3.7c1.2-2.5,1.8-5.7,1.8-9.6c0-5.4-1.7-9.9-5.2-13.3c-3.4-3.5-8.3-5.2-14.4-5.2
					c-6.6,0-12.1,2.3-16.5,6.9c-4.4,4.6-6.6,10.2-6.6,16.9c0,6.4,1.9,11.5,5.8,15.2c3.9,3.7,9.2,5.6,16.1,5.6c5.2,0,10-1,14.3-3v6.6
					c-4,1.7-9,2.5-15.3,2.5c-8.5,0-15.5-2.4-20.8-7.3c-5.4-4.9-8-11.5-8-19.7c0-8.4,2.9-15.5,8.6-21.2c5.7-5.7,13.1-8.6,22.1-8.6
					c8.3,0,15.1,2.2,20.2,6.7c5.1,4.5,7.7,10.3,7.7,17.6c0,6-1.6,10.8-4.7,14.4c-3.1,3.6-7,5.4-11.7,5.4c-2.3,0-4.2-0.6-5.6-1.8
					C172.7,270.1,171.9,268.5,171.8,266.5z M167.2,248.2c-2.1,0-3.8,1.2-5.1,3.6s-2,5.1-2,8.2c0,2.2,0.4,4,1.3,5.2
					c0.9,1.2,2,1.9,3.5,1.9c2.2,0,3.9-1.2,5.1-3.5c1.2-2.3,1.9-5.5,1.9-9.4c0-1.9-0.4-3.3-1.3-4.4
					C169.8,248.7,168.6,248.2,167.2,248.2z"/>
			</g>
		</g>
		<g id="people">
			<g>
				<path class="st4" d="M121,98.1C121,98.1,121,98.1,121,98.1c-2.1-0.9-7.2-2.7-10.3-3.6c-0.3-0.1-0.3-0.1-0.3-1.2
					c0-0.9,0.4-1.8,0.7-2.6c0.4-0.9,0.9-2.3,1-3.6c0.5-0.6,1.1-1.6,1.5-3.7c0.4-1.8,0.2-2.5,0-3.1c0-0.1-0.1-0.1-0.1-0.2
					c-0.1-0.4,0-2.7,0.3-4.4c0.2-1.2-0.1-3.7-1.7-5.8c-1-1.3-3-2.9-6.6-3.2l-2,0c-3.5,0.2-5.5,1.8-6.5,3.2c-1.6,2.1-1.9,4.6-1.7,5.8
					c0.3,1.7,0.4,4,0.3,4.4c0,0.1,0,0.1-0.1,0.2c-0.2,0.6-0.4,1.3,0,3.1c0.4,2.1,1.1,3.2,1.5,3.7c0.2,1.3,0.6,2.7,1,3.6
					c0.3,0.6,0.4,1.5,0.4,2.7c0,1.1,0,1.1-0.3,1.2c-3.2,1-8.4,2.8-10.3,3.7c0,0,0,0,0-0.1v8.1h33V98.1z"/>
				<path class="st7" d="M110.7,94.5c-0.3-0.1-0.3-0.1-0.3-1.2c0-0.9,0.4-1.8,0.7-2.6c0.4-0.9,0.9-2.3,1-3.6
					c0.5-0.6,1.1-1.6,1.5-3.7c0.4-1.8,0.2-2.5,0-3.1c0-0.1-0.1-0.1-0.1-0.2c-0.1-0.4,0-2.7,0.3-4.4c0.2-1.2-0.1-3.7-1.7-5.8
					c-1-1.3-3-2.9-6.6-3.2l-1.1,0v39.6H121v-8.2c0,0,0,0,0,0C118.9,97.2,113.8,95.5,110.7,94.5z"/>
			</g>
		</g>
	</g>
</g>
</svg>
